<svg xmlns="http://www.w3.org/2000/svg" width="81" height="81" viewBox="0 0 81 81">
  <g id="pic" transform="translate(-64.085 -550)">
    <circle id="bg" cx="40.5" cy="40.5" r="40.5" transform="translate(64.085 550)" fill="#e2ebf9"/>
    <g id="icn" transform="translate(17.218 569.998)">
      <path id="Path_12510" data-name="Path 12510" d="M169.91,7.5a11.756,11.756,0,0,0-11.574,11.807v4.731a4.18,4.18,0,0,1,3.2-1.058h2.216c.289,0,1.91-.132,1.791-.123a4.787,4.787,0,0,0,4.317-3.6.142.142,0,0,1,.276,0,4.778,4.778,0,0,0,4.27,3.595c1.469.125,1.489.131,1.754.131h2.3a3.958,3.958,0,0,1,3.2,1.058V19.162A11.661,11.661,0,0,0,169.91,7.5Z" transform="translate(-83.097 -6.607)" fill="#685e68"/>
      <path id="Path_12511" data-name="Path 12511" d="M161.91,19.308a11.791,11.791,0,0,1,9.88-11.67,11.667,11.667,0,0,0-13.453,11.669v4.731a4.18,4.18,0,0,1,3.2-1.058h.375Z" transform="translate(-83.097 -6.607)" fill="#554e56"/>
      <path id="Path_12512" data-name="Path 12512" d="M292.636,191.036a.86.86,0,0,0,.55.8c.616.238,5.558,2.014,7.384,2.721,4.252-1.706,3.907-7.792,1.824-8.866a5.5,5.5,0,0,1-1.7-1.249,7.509,7.509,0,0,1-1.334-4.153,4.623,4.623,0,0,1-2.979.574,9.152,9.152,0,0,1-3.754,7.089Z" transform="translate(-201.39 -158.808)" fill="#685e68"/>
      <path id="Path_12513" data-name="Path 12513" d="M127.639,194.588c3.99-1.547,3.438-1.194,7.175-2.643.237-.092.837-.249.837-.914V187.9a8.963,8.963,0,0,1-3.641-7.035,4.629,4.629,0,0,1-2.976-.575,7.506,7.506,0,0,1-1.334,4.153,5.5,5.5,0,0,1-1.7,1.249C123.907,186.772,123.331,192.922,127.639,194.588Z" transform="translate(-53.206 -158.808)" fill="#685e68"/>
      <path id="Path_12514" data-name="Path 12514" d="M129.576,185.691a5.508,5.508,0,0,0,1.7-1.248,5.382,5.382,0,0,0,.945-1.881,8.994,8.994,0,0,1-.208-1.7,4.626,4.626,0,0,1-2.976-.575,7.5,7.5,0,0,1-1.334,4.153,5.5,5.5,0,0,1-1.7,1.249c-2.1,1.081-2.672,7.231,1.636,8.9.937-.364,1.622-.621,2.173-.823C127.074,191.454,127.745,186.635,129.576,185.691Z" transform="translate(-53.206 -158.808)" fill="#554e56"/>
      <path id="Path_12515" data-name="Path 12515" d="M201.082,245.688l1.844,5.808a23.263,23.263,0,0,0,9.457-.029l1.822-5.739-1.3-.5a.86.86,0,0,1-.55-.8l-.007-3.2a8.2,8.2,0,0,1-4.61,1.4,8.72,8.72,0,0,1-4.9-1.457v3.25c0,.658-.587.817-.837.914Z" transform="translate(-120.75 -212.434)" fill="#ffbd86"/>
      <path id="Path_12516" data-name="Path 12516" d="M204.884,248.056a1.048,1.048,0,0,1,.62-1.294c.25-.1.837-.255.837-.914v-3.329a8.5,8.5,0,0,1-3.5-1.351v3.25c0,.658-.587.817-.837.914l-.918.356,1.844,5.808a20.655,20.655,0,0,0,3.185.425Z" transform="translate(-120.75 -212.434)" fill="#f6a96c"/>
      <path id="Path_12517" data-name="Path 12517" d="M220.287,327.162a21,21,0,0,1-4.8-.519c1.975,6.221,4.647,14.638,4.851,15.281l4.86-15.311A20.8,20.8,0,0,1,220.287,327.162Z" transform="translate(-133.443 -287.699)" fill="#60b8ff"/>
      <path id="Path_12518" data-name="Path 12518" d="M219.123,328.414l-.342-1.078a19.554,19.554,0,0,1-3.289-.47l4.85,15.281,1.553-4.892Q220.622,333.221,219.123,328.414Z" transform="translate(-133.443 -287.923)" fill="#22a7ff"/>
      <path id="Path_12519" data-name="Path 12519" d="M93.369,298.9l-6.428-20.249L76,282.9a7.963,7.963,0,0,0-4.651,7.214v13.9a1.55,1.55,0,0,0,1.55,1.55H93.726Z" transform="translate(-6.469 -245.452)" fill="#d9edff"/>
      <path id="Path_12520" data-name="Path 12520" d="M74.918,331.571V315.526a7.926,7.926,0,0,1,2.449-5.721L76,310.337a7.963,7.963,0,0,0-4.651,7.214v13.9a1.55,1.55,0,0,0,1.55,1.55h2.979A1.55,1.55,0,0,1,74.918,331.571Z" transform="translate(-6.469 -272.893)" fill="#b4dbff"/>
      <path id="Path_12521" data-name="Path 12521" d="M126.877,394.3V380.285a.894.894,0,1,0-1.787,0V394.3Z" transform="translate(-53.812 -334.189)" fill="#8bcaff"/>
      <path id="Path_12522" data-name="Path 12522" d="M174.384,429.141a2.946,2.946,0,1,1-2.946-2.946A2.946,2.946,0,0,1,174.384,429.141Z" transform="translate(-92.043 -375.416)" fill="#60b8ff"/>
      <path id="Path_12523" data-name="Path 12523" d="M168.254,280.222V282.8a.979.979,0,0,0,.392.783l1.95,1.46a.979.979,0,0,1,.305,1.187l-.864,1.909a.979.979,0,0,0,.3,1.183l8.395,9.583c-.29-.916-5.99-18.87-6.428-20.249Z" transform="translate(-91.833 -245.452)" fill="#b4dbff"/>
      <path id="Path_12524" data-name="Path 12524" d="M176.973,293.356l-3.537-4.037a.979.979,0,0,1-.3-1.184l.863-1.909a.978.978,0,0,0-.305-1.187l-1.95-1.46a.978.978,0,0,1-.392-.783v-1.189a2.024,2.024,0,0,1,1.292-1.887l-.339-1.07-4.051,1.57V282.8a.979.979,0,0,0,.392.783l1.95,1.46a.979.979,0,0,1,.305,1.187l-.864,1.909a.979.979,0,0,0,.3,1.184l8.395,9.582Z" transform="translate(-91.833 -245.452)" fill="#8bcaff"/>
      <path id="Path_12525" data-name="Path 12525" d="M155.512,140.374l-.238-6.2h0a4.179,4.179,0,0,0-3.2,1.057,3.127,3.127,0,0,0-.849,2.131c0,1.983,2.137,3.548,4.294,3.208C155.516,140.508,155.512,140.441,155.512,140.374Z" transform="translate(-76.831 -118.162)" fill="#ffbd86"/>
      <path id="Path_12526" data-name="Path 12526" d="M155.5,140.163a3.244,3.244,0,0,1-1.852-2.8,3.128,3.128,0,0,1,.85-2.131,5.747,5.747,0,0,1,.792-.544l-.02-.512h0a4.178,4.178,0,0,0-3.2,1.057,3.127,3.127,0,0,0-.849,2.131c0,1.983,2.137,3.548,4.294,3.208,0-.067-.005-.134-.005-.2Z" transform="translate(-76.831 -118.162)" fill="#f6a96c"/>
      <path id="Path_12527" data-name="Path 12527" d="M328.578,135.211a3.957,3.957,0,0,0-3.195-1.054h0l-.238,6.113c0,.095,0,.188-.007.283,2.159.341,4.3-1.224,4.3-3.208A3.132,3.132,0,0,0,328.578,135.211Z" transform="translate(-230.021 -118.141)" fill="#ffbd86"/>
      <path id="Path_12528" data-name="Path 12528" d="M327.808,134.653a3.757,3.757,0,0,0-2.429-.5h0l-.238,6.113c0,.095,0,.188-.007.282a3.965,3.965,0,0,0,2.679-.544Z" transform="translate(-230.017 -118.14)" fill="#f6a96c"/>
      <path id="Path_12529" data-name="Path 12529" d="M199.842,106.06c-.265,0-.285-.007-1.754-.132a4.786,4.786,0,0,1-4.223-3.416c-.017-.059-.032-.119-.047-.178a.142.142,0,0,0-.277,0q-.022.091-.048.18a4.794,4.794,0,0,1-4.269,3.423c.119-.009-1.5.123-1.791.123h-2.211v6.195a8.458,8.458,0,0,0,16.914-.082V106.06Z" transform="translate(-106.78 -90.043)" fill="#fed2a4"/>
      <path id="Path_12530" data-name="Path 12530" d="M188.8,139.964V133.68c-.471.036-1.182.089-1.363.089h-2.212v6.195a8.344,8.344,0,0,0,8.544,8.337,8.185,8.185,0,0,0,1.742-.183A8.29,8.29,0,0,1,188.8,139.964Z" transform="translate(-106.78 -117.752)" fill="#ffbd86"/>
      <path id="Path_12531" data-name="Path 12531" d="M278.129,304.3V290.4a7.939,7.939,0,0,0-4.651-7.214l-10.855-4.2-6.416,20.21v6.659h20.372A1.55,1.55,0,0,0,278.129,304.3Z" transform="translate(-169.307 -245.744)" fill="#d9edff"/>
      <path id="Path_12532" data-name="Path 12532" d="M264.348,285.333l1.95-1.46a.98.98,0,0,0,.392-.783v-2.532l-4.063-1.574-6.416,20.21,8.395-9.582a.979.979,0,0,0,.3-1.184l-.864-1.909A.979.979,0,0,1,264.348,285.333Z" transform="translate(-169.31 -245.744)" fill="#b4dbff"/>
      <path id="Path_12533" data-name="Path 12533" d="M69.2,36.617A8.808,8.808,0,0,0,64,44.658v13.9A2.446,2.446,0,0,0,66.443,61h40.847a2.446,2.446,0,0,0,2.444-2.443v-13.9a8.809,8.809,0,0,0-5.2-8.041l-.017-.007-3.3-1.278a6.045,6.045,0,0,0,1.69-2.363.894.894,0,1,0-1.656-.672,4.225,4.225,0,0,1-2.071,2.246l-5.518-2.137-1.141-.442-.006-2.357a9.36,9.36,0,0,0,3.678-6.261,4.7,4.7,0,0,0,1.06-.179,6.775,6.775,0,0,0,1.4,3.047,6.3,6.3,0,0,0,1.967,1.462,1.914,1.914,0,0,1,.765,1.082.893.893,0,1,0,1.686-.592,3.563,3.563,0,0,0-1.632-2.078A4.6,4.6,0,0,1,100,25.053a5.375,5.375,0,0,1-1.088-2.8,4.064,4.064,0,0,0,1.405-3.046,4.006,4.006,0,0,0-.848-2.454V12.555a12.555,12.555,0,1,0-25.108.146V16.75a4.005,4.005,0,0,0-.848,2.455,4.065,4.065,0,0,0,1.405,3.046,5.376,5.376,0,0,1-1.089,2.8,4.591,4.591,0,0,1-1.427,1.035c-1.337.689-2.189,2.676-2.074,4.832a6.164,6.164,0,0,0,2.1,4.447L69.222,36.61ZM65.787,58.558v-13.9a7.089,7.089,0,0,1,4.089-6.384l5.67-2.2v1.27a1.882,1.882,0,0,0,.75,1.5l1.95,1.459a.085.085,0,0,1,.027.1l-.863,1.909a1.862,1.862,0,0,0,.493,2.2l.624.713V49.99a3.84,3.84,0,1,0,1.788,0V47.266l5.711,6.519v5.429H73.085V46.1a.894.894,0,0,0-1.788,0V59.215H66.443A.657.657,0,0,1,65.787,58.558ZM75.3,19.2a2.466,2.466,0,0,1,2.264-2.293v4.635A2.45,2.45,0,0,1,75.3,19.2Zm5.369-2.294c.311,0,1.856-.123,1.861-.126A5.8,5.8,0,0,0,86.92,14.2a5.643,5.643,0,0,0,.425.569,6.073,6.073,0,0,0,4.58,2.067c.834.071.9.077,1.156.077h1.4v5.22a7.539,7.539,0,0,1-7.448,7.525h-.026a7.5,7.5,0,0,1-7.653-7.443v-5.3ZM98.534,19.2a2.45,2.45,0,0,1-2.264,2.343V16.9A2.437,2.437,0,0,1,98.534,19.2Zm-1.4,40.01H91.5v-5a2.817,2.817,0,0,1,5.634,0Zm-2.61-20.342a1.86,1.86,0,0,0-.584,2.27l.863,1.909c.038.083-.049.1-.159.226l-5.577,6.366,3.208-10.106h0L93.9,34.416,96.5,35.426v1.919a.086.086,0,0,1-.034.068Zm-15.064,12.8a2.052,2.052,0,1,1-2.094,2.051A2.054,2.054,0,0,1,79.456,51.674Zm-.26-8.4a.9.9,0,0,0-.132-.123.084.084,0,0,1-.026-.1l.863-1.909a1.861,1.861,0,0,0-.584-2.27l-1.95-1.459a.087.087,0,0,1-.034-.068V35.382l2.594-1.005,4.847,15.267ZM87,31.442h.031a9.07,9.07,0,0,0,3.692-.785l0,1.335a1.742,1.742,0,0,0,1.1,1.624l.017.007.379.147-1.5,4.741a17.085,17.085,0,0,1-1.8.271A.894.894,0,1,0,89.1,40.56c.348-.034.687-.077,1.016-.126C89.744,41.6,87.3,49.284,86.919,50.5L83.73,40.451c.332.048.674.088,1.025.121a.894.894,0,0,0,.166-1.78,17.4,17.4,0,0,1-1.8-.258L81.6,33.73l.046-.017A1.777,1.777,0,0,0,83,31.984V30.6A10.035,10.035,0,0,0,87,31.442Zm.81,22.343,5.608-6.4V49.7a4.612,4.612,0,0,0-3.711,4.516v5h-1.9Zm20.135,4.773a.657.657,0,0,1-.657.656h-4.75V46.1a.894.894,0,1,0-1.787,0V59.215H98.918v-5A4.612,4.612,0,0,0,95.207,49.7V45.344l.728-.831a1.862,1.862,0,0,0,.493-2.2l-.864-1.909a.085.085,0,0,1,.026-.1l1.95-1.459a1.882,1.882,0,0,0,.75-1.5V36.118l5.566,2.156a7.074,7.074,0,0,1,4.089,6.384ZM76.152,12.7A10.869,10.869,0,0,1,86.838,1.788h.081A10.761,10.761,0,0,1,97.686,12.555v2.9c-1.2-.5-1.61-.333-4.606-.333-.206,0-.193,0-1.678-.128a3.893,3.893,0,0,1-3.477-2.915,1.036,1.036,0,0,0-2.014,0A3.9,3.9,0,0,1,82.4,15c-.072.01-1.5.117-1.711.121h-.014c-2.215,0-2.141,0-2.219-.006a4.535,4.535,0,0,0-2.3.366ZM74.468,34.576a4.286,4.286,0,0,1-2.351-3.752c-.083-1.549.511-2.84,1.108-3.148a5.876,5.876,0,0,0,3.365-4.509,4.676,4.676,0,0,0,1.049.179,9.155,9.155,0,0,0,3.574,6.206v2.405C81.156,31.988,74.528,34.553,74.468,34.576Z"/>
      <path id="Path_12534" data-name="Path 12534" d="M186.769,445.208a.893.893,0,1,0-.894-.894A.895.895,0,0,0,186.769,445.208Z" transform="translate(-107.354 -390.59)"/>
    </g>
  </g>
</svg>
