<svg xmlns="http://www.w3.org/2000/svg" width="68.389" height="80.756" viewBox="0 0 68.389 80.756">
  <g id="icn" transform="translate(-29.579)">
    <g id="Clipboard" transform="translate(61.638 0)">
      <g id="Clip_Board" data-name="Clip Board">
        <g id="Board">
          <path id="Path_12675" data-name="Path 12675" d="M92.658,103.105l.738-.426a.93.93,0,0,0,.421-.729V42.857a.931.931,0,0,0-.421-.729L59.488,22.551a.93.93,0,0,0-.842,0l-.738.426a.93.93,0,0,0-.421.729V82.8a.93.93,0,0,0,.421.729l33.908,19.577A.93.93,0,0,0,92.658,103.105Z" transform="translate(-57.487 -22.45)" fill="#27debf"/>
          <path id="Path_12676" data-name="Path 12676" d="M92.658,103.105l.738-.426a.93.93,0,0,0,.421-.729V42.857a.931.931,0,0,0-.421-.729L59.488,22.551a.93.93,0,0,0-.842,0l-.738.426a.93.93,0,0,0-.421.729V82.8a.93.93,0,0,0,.421.729l33.908,19.577A.93.93,0,0,0,92.658,103.105Z" transform="translate(-57.487 -22.45)" opacity="0.3"/>
          <path id="Path_12677" data-name="Path 12677" d="M58.02,23.638c.029-.218.206-.3.416-.175L92.344,43.04a.855.855,0,0,1,.3.313l1.581-.912a.871.871,0,0,0-.3-.313L60.017,22.551a.932.932,0,0,0-.842,0l-.739.426A.942.942,0,0,0,58.02,23.638Z" transform="translate(-58.015 -22.45)" fill="#fff" opacity="0.4"/>
          <path id="Path_12678" data-name="Path 12678" d="M57.487,170.043a.067.067,0,0,0,.025.01.262.262,0,0,0,.043.016l.017.006c.025.008.051.014.078.02h.01a.948.948,0,0,0,.5-.041.666.666,0,0,0,.093-.043l.739-.426a.936.936,0,0,0,.42-.729V109.761a.868.868,0,0,0-.123-.416l-1.581.912a.85.85,0,0,1,.124.416v59.094a.349.349,0,0,1-.064.222.219.219,0,0,1-.225.072A.332.332,0,0,1,57.487,170.043Z" transform="translate(-23.084 -89.354)" opacity="0.15"/>
        </g>
        <g id="Clip" transform="translate(10.272 4.218)">
          <path id="Path_12679" data-name="Path 12679" d="M105.869,45.163l.062-.037.7-.4a2.63,2.63,0,0,1,.817-.29c.121-.027.229-.058.325-.089a2.512,2.512,0,0,0,.309-.127l-.052-.064v0l.791-.457v0a.8.8,0,0,1,.208-.084c.3-.072.743.1,1.188.051a1.117,1.117,0,0,0,.807-.48,9.812,9.812,0,0,0,.673-1.528l-.208-.307a.707.707,0,0,1,.066-.037l.725-.42a.789.789,0,0,1,.4-.109,1.55,1.55,0,0,1,.76.247c1.736,1,1.795,3.385,2.421,4.95a9.054,9.054,0,0,0,1.993,2.732c.486.673.515,1.173,1.583,2.644s1.11,1.832,1.11,2.11v2.193l-.79.455L105.55,47.907ZM118.9,53.615c.185.1.337-.037.337-.323a.892.892,0,0,0-.337-.712c-.185-.107-.334.039-.334.325A.887.887,0,0,0,118.9,53.615Zm-6.243-6.154a.716.716,0,0,0,1.095-.334c.55.107.96-.426.96-1.34a3.341,3.341,0,0,0-1.268-2.681.714.714,0,0,0-1.093.334c-.552-.109-.96.422-.96,1.34A3.34,3.34,0,0,0,112.656,47.461Zm-4.719-.177c.185.107.334-.037.334-.321a.884.884,0,0,0-.334-.71c-.187-.107-.336.037-.336.323A.879.879,0,0,0,107.938,47.285Z" transform="translate(-105.55 -40.783)" fill="#455a64"/>
          <path id="Path_12680" data-name="Path 12680" d="M105.55,95.314l1.528-.882a1.08,1.08,0,0,1,.05.34v2.193l-.79.455-.789-.456Z" transform="translate(-92.128 -82.09)" fill="#37474f" opacity="0.5"/>
          <path id="Path_12681" data-name="Path 12681" d="M113.829,77.806l-.79-1.824,1.255-.736h0c.368.51.475.922.97,1.731Z" transform="translate(-101.987 -67.318)" fill="#37474f" opacity="0.5"/>
          <path id="Path_12682" data-name="Path 12682" d="M125.3,54.075l-.1-.532c.349-.146.581-.618.581-1.3a3.632,3.632,0,0,0-.962-2.445l1.095-.632c.467,1.063.639,2.317,1.02,3.269a6.105,6.105,0,0,0,.254.555Z" transform="translate(-116.615 -47.234)" fill="#37474f" opacity="0.5"/>
          <path id="Path_12683" data-name="Path 12683" d="M109.3,46.687l.062-.037a3.122,3.122,0,0,1,.729-.237,2.281,2.281,0,0,0,1.112-.544,1.622,1.622,0,0,1,.257-.19.736.736,0,0,1,.212-.086c.478-.115,1.349.406,1.975-.4l.019-.025c.438-.589.6-1.9,1.252-2.29a.7.7,0,0,1,.066-.037,1.172,1.172,0,0,1,1.1.173c1.736,1,1.795,3.385,2.421,4.95A9.064,9.064,0,0,0,120.5,50.69c.486.673.513,1.172,1.583,2.644s1.108,1.831,1.108,2.11v2.193L108.982,49.43V47.239A.554.554,0,0,1,109.3,46.687Zm12.243,8.907c.185.107.334-.037.334-.323a.891.891,0,0,0-.334-.712c-.187-.107-.334.039-.334.325A.88.88,0,0,0,121.544,55.594Zm-5.456-6.609a.716.716,0,0,0,1.095-.334,2.022,2.022,0,0,0,.173-.885,3.34,3.34,0,0,0-1.268-2.681,1.021,1.021,0,0,0-.305-.121c-.552-.109-.96.422-.96,1.34A3.34,3.34,0,0,0,116.088,48.985Zm-5.508.278c.187.107.337-.037.337-.321a.879.879,0,0,0-.337-.709c-.185-.107-.334.037-.334.323A.884.884,0,0,0,110.58,49.263Z" transform="translate(-108.982 -42.307)" fill="#37474f"/>
          <path id="Path_12684" data-name="Path 12684" d="M135.105,53.629a3.34,3.34,0,0,0,1.266,2.681.716.716,0,0,0,1.095-.334.991.991,0,0,1-.307-.121,3.34,3.34,0,0,1-1.266-2.681,2.021,2.021,0,0,1,.173-.885C135.513,52.18,135.105,52.711,135.105,53.629Z" transform="translate(-129.264 -49.631)" fill="#263238"/>
          <path id="Path_12685" data-name="Path 12685" d="M115.025,94.962c.185.107.336-.037.336-.321a.889.889,0,0,0-.336-.711c-.185-.107-.335.039-.335.324a.882.882,0,0,0,.335.709" transform="translate(-102.463 -81.676)" fill="#263238"/>
          <path id="Path_12686" data-name="Path 12686" d="M162.677,67.454c.185.107.336-.037.336-.322a.889.889,0,0,0-.336-.711c-.185-.107-.335.039-.335.324a.883.883,0,0,0,.335.709" transform="translate(-161.078 -60.496)" fill="#263238"/>
        </g>
        <g id="Papet" transform="translate(1.58 7.04)">
          <path id="Path_12687" data-name="Path 12687" d="M105.2,70.148,75.691,53.113a.559.559,0,0,0-.505,0l-.285.164a.558.558,0,0,0-.253.437v51.017a.559.559,0,0,0,.253.438L104.407,122.2a.558.558,0,0,0,.5,0l.285-.165a.558.558,0,0,0,.253-.438V70.586A.558.558,0,0,0,105.2,70.148Z" transform="translate(-74.649 -53.052)" fill="#f5f5f5"/>
          <path id="Path_12688" data-name="Path 12688" d="M74.973,53.636c.031-.1.128-.136.243-.07L104.722,70.6a.506.506,0,0,1,.179.188l.79-.455a.494.494,0,0,0-.179-.189L76.005,53.111a.548.548,0,0,0-.5,0l-.286.163A.56.56,0,0,0,74.973,53.636Z" transform="translate(-74.964 -53.05)" fill="#fafafa"/>
          <path id="Path_12689" data-name="Path 12689" d="M74.652,180.081a.461.461,0,0,0,.093.025l.049.006a.685.685,0,0,0,.153-.006.462.462,0,0,0,.093-.025.471.471,0,0,0,.056-.027l.284-.163a.558.558,0,0,0,.253-.437V128.436a.5.5,0,0,0-.074-.249l-.79.455a.531.531,0,0,1,.074.249v51.017C74.845,180.046,74.763,180.114,74.652,180.081Z" transform="translate(-44.833 -110.901)" fill="#e0e0e0"/>
        </g>
        <g id="Clip-2" data-name="Clip" transform="translate(7.737 5.637)">
          <path id="Path_12690" data-name="Path 12690" d="M101.693,54.791l.785-.455a.852.852,0,0,1,.789.023c.918.4,1.314.587,1.789.785l.342.138c.185.074.556.012.441-.636l-1.219-3.284.017-.01.772-.447a.345.345,0,0,1,.128-.045.556.556,0,0,1,.086-.008c.5-.012.642-3.231.646-3.331v0l.035-.019.764-.439a.853.853,0,0,1,.435-.111,1.6,1.6,0,0,1,.723.2,6.439,6.439,0,0,1,2.706,4.172,8.042,8.042,0,0,0,1.865,3.284,1.962,1.962,0,0,1,.657,1.1l.478,2.71.154.867a2.844,2.844,0,0,0,.776,1.274l2.475,1.855a6.289,6.289,0,0,1,2.284,4.194s0,.01,0,.012c.01.056,0,.1-.027.111a.028.028,0,0,1-.027,0v0s0,0,0,0l-.317-.181-17.028-9.821a.374.374,0,0,1-.156-.237s0-.006,0-.008,0,0,0-.006c-.1-.587-.381-1.686-.381-1.686Zm4.923-4.975a3.959,3.959,0,0,0,1.664,2.566c.509.266.881.1,1.005-.367a.583.583,0,0,0,.558-.072c.237-.187-1.933-3.91-2.11-3.828a.631.631,0,0,0-.327.445C106.8,48.375,106.453,48.89,106.616,49.816Z" transform="translate(-101.203 -46.952)" fill="#455a64"/>
          <path id="Path_12691" data-name="Path 12691" d="M101.681,119.655l1.24-.716a6.859,6.859,0,0,1,1.223,3.1s0,.01,0,.012c.01.056,0,.1-.027.111a.028.028,0,0,1-.027,0v0s0,0,0,0l0,0-.979-.775Z" transform="translate(-85.725 -102.378)" fill="#37474f" opacity="0.5"/>
          <path id="Path_12692" data-name="Path 12692" d="M127.947,86.878,126.2,87.887l-.79-4.56,1.577-.911a1.494,1.494,0,0,1,.247.6l.478,2.71.154.867A1.453,1.453,0,0,0,127.947,86.878Z" transform="translate(-114.981 -74.258)" fill="#37474f" opacity="0.5"/>
          <path id="Path_12693" data-name="Path 12693" d="M137.993,56.512a6.786,6.786,0,0,1,.829,2.177,5.418,5.418,0,0,0,.618,1.547l-1.5.866-.746-1.722a.576.576,0,0,0,.537-.076,6.092,6.092,0,0,0-.946-2.1Z" transform="translate(-129.091 -54.313)" fill="#37474f" opacity="0.5"/>
          <path id="Path_12694" data-name="Path 12694" d="M102.406,56.316l.012-.006a.858.858,0,0,1,.785.025c1.126.5,1.466.659,2.133.923.179.072.539.014.445-.595a.276.276,0,0,0-.006-.041l-.154-.867-.426-2.362s-.1-.371.15-.511l.017-.01a.461.461,0,0,1,.2-.043.96.96,0,0,0,.7-.449,1.775,1.775,0,0,0,.265-1.351c-.179-1.013.017-1.723.467-1.987a.341.341,0,0,1,.035-.021,1.205,1.205,0,0,1,1.133.111A6.439,6.439,0,0,1,110.87,53.3a8.042,8.042,0,0,0,1.865,3.284,1.962,1.962,0,0,1,.657,1.1l.478,2.71.154.867a2.841,2.841,0,0,0,.778,1.273l2.473,1.855a5.968,5.968,0,0,1,2.036,3.082s.927.719.986.778v0s0,0,0,0l0,0-.317-.181L102.9,58.257s-.2-.107-.239-.134-.731-.677-.731-.677A1.338,1.338,0,0,1,102.406,56.316Zm4.935-4.981A3.959,3.959,0,0,0,109,53.9c.509.266.881.1,1.005-.367a1.952,1.952,0,0,0,0-.8,3.954,3.954,0,0,0-1.666-2.564,1.306,1.306,0,0,0-.214-.091C107.523,49.895,107.177,50.41,107.341,51.335Z" transform="translate(-101.928 -48.471)" fill="#37474f"/>
          <path id="Path_12695" data-name="Path 12695" d="M146.681,55.073a3.959,3.959,0,0,0,1.664,2.566c.509.266.881.1,1.005-.367a1.383,1.383,0,0,1-.216-.089,3.954,3.954,0,0,1-1.664-2.566,1.916,1.916,0,0,1,0-.8C146.864,53.633,146.518,54.148,146.681,55.073Z" transform="translate(-141.268 -52.209)" fill="#263238"/>
          <path id="Path_12696" data-name="Path 12696" d="M147,53.972h0a.4.4,0,0,0-.356.172c-.306.435-.013,1.544.114,1.9.177.494,1.321,1.651,1.638,1.651a.771.771,0,0,0,.516-.331,1.928,1.928,0,0,0,0-.77,3.906,3.906,0,0,0-1.641-2.53,1.244,1.244,0,0,0-.2-.086c-.024,0-.047,0-.069,0m0-.049c.025,0,.051,0,.079,0a1.306,1.306,0,0,1,.214.091,3.954,3.954,0,0,1,1.666,2.564,1.952,1.952,0,0,1,0,.8.827.827,0,0,1-.559.359h-.007c-.342,0-1.494-1.167-1.679-1.683s-.583-2.135.288-2.135Z" transform="translate(-140.873 -52.319)" fill="#263238"/>
          <path id="Path_12697" data-name="Path 12697" d="M120.293,96.772l-17.395-10s-.2-.108-.239-.133-.731-.678-.731-.678l17.381,10.032S120.362,96.808,120.293,96.772Z" transform="translate(-101.927 -76.987)" fill="#263238"/>
        </g>
        <g id="Group_2515" data-name="Group 2515" transform="translate(4.519 32.248)">
          <g id="Group_2506" data-name="Group 2506" transform="translate(0 18.643)">
            <g id="Group_2503" data-name="Group 2503" transform="translate(19.242 11.076)">
              <path id="Path_12698" data-name="Path 12698" d="M95.785,295.353l-4.632-2.712v5.386l4.631,2.712Z" transform="translate(-90.962 -292.449)" fill="#fafafa"/>
              <path id="Path_12699" data-name="Path 12699" d="M94.954,294.822v4.942l-4.249-2.488v-4.943Zm.191,5.467a.191.191,0,0,0,.191-.191v-5.386a.191.191,0,0,0-.095-.165l-4.632-2.712a.191.191,0,0,0-.288.165v5.386a.191.191,0,0,0,.095.165l4.631,2.712A.191.191,0,0,0,95.145,300.29Z" transform="translate(-90.322 -291.809)" fill="#455a64"/>
            </g>
            <g id="Group_2504" data-name="Group 2504">
              <path id="Path_12700" data-name="Path 12700" d="M138.524,253.773v.39c0,.211-.148.3-.332.191l-16.439-9.49a.732.732,0,0,1-.332-.574V243.9c0-.211.148-.3.332-.191l16.439,9.491A.732.732,0,0,1,138.524,253.773Z" transform="translate(-121.422 -243.663)" fill="#e0e0e0"/>
              <path id="Path_12701" data-name="Path 12701" d="M138.524,264v.389c0,.211-.148.3-.332.191l-16.439-9.49a.733.733,0,0,1-.332-.574v-.391c0-.211.148-.3.332-.191l16.439,9.491A.733.733,0,0,1,138.524,264Z" transform="translate(-121.422 -251.536)" fill="#e0e0e0"/>
              <path id="Path_12702" data-name="Path 12702" d="M138.524,274.168v.39c0,.211-.148.3-.332.191l-16.439-9.49a.733.733,0,0,1-.332-.574v-.391c0-.211.148-.3.332-.191l16.439,9.491A.732.732,0,0,1,138.524,274.168Z" transform="translate(-121.422 -259.366)" fill="#e0e0e0"/>
            </g>
            <g id="Group_2505" data-name="Group 2505" transform="translate(18.657 9.904)">
              <path id="Path_12703" data-name="Path 12703" d="M99.89,293.543l1.077-1.037-.464-.982-.613.59-2.551-5.4-.464.447Z" transform="translate(-96.875 -286.713)" fill="#27debf"/>
            </g>
          </g>
          <g id="Group_2510" data-name="Group 2510" transform="translate(0 9.322)">
            <g id="Group_2507" data-name="Group 2507" transform="translate(19.242 11.076)">
              <path id="Path_12704" data-name="Path 12704" d="M95.785,254.834l-4.632-2.712v5.386l4.631,2.712Z" transform="translate(-90.962 -251.931)" fill="#fafafa"/>
              <path id="Path_12705" data-name="Path 12705" d="M94.954,254.3v4.942l-4.249-2.488v-4.943Zm.191,5.467a.191.191,0,0,0,.191-.191v-5.386a.191.191,0,0,0-.095-.165l-4.632-2.712a.191.191,0,0,0-.288.165v5.386a.192.192,0,0,0,.095.165l4.631,2.712A.191.191,0,0,0,95.145,259.771Z" transform="translate(-90.322 -251.29)" fill="#455a64"/>
            </g>
            <g id="Group_2508" data-name="Group 2508">
              <path id="Path_12706" data-name="Path 12706" d="M138.524,213.255v.389c0,.211-.148.3-.332.191l-16.439-9.49a.733.733,0,0,1-.332-.574v-.391c0-.211.148-.3.332-.191l16.439,9.491A.732.732,0,0,1,138.524,213.255Z" transform="translate(-121.422 -203.144)" fill="#e0e0e0"/>
              <path id="Path_12707" data-name="Path 12707" d="M138.524,223.48v.39c0,.211-.148.3-.332.191l-16.439-9.49a.732.732,0,0,1-.332-.574v-.391c0-.211.148-.3.332-.191l16.439,9.491A.732.732,0,0,1,138.524,223.48Z" transform="translate(-121.422 -211.018)" fill="#e0e0e0"/>
              <path id="Path_12708" data-name="Path 12708" d="M138.524,233.65v.389c0,.211-.148.3-.332.191l-16.439-9.49a.732.732,0,0,1-.332-.574v-.391c0-.211.148-.3.332-.191l16.439,9.491A.733.733,0,0,1,138.524,233.65Z" transform="translate(-121.422 -218.847)" fill="#e0e0e0"/>
            </g>
            <g id="Group_2509" data-name="Group 2509" transform="translate(18.657 9.904)">
              <path id="Path_12709" data-name="Path 12709" d="M99.89,253.024l1.077-1.037-.464-.982-.613.59-2.551-5.4-.464.447Z" transform="translate(-96.875 -246.195)" fill="#27debf"/>
            </g>
          </g>
          <g id="Group_2514" data-name="Group 2514" transform="translate(0)">
            <g id="Group_2511" data-name="Group 2511" transform="translate(19.242 11.076)">
              <path id="Path_12710" data-name="Path 12710" d="M95.785,214.315,91.153,211.6v5.386l4.631,2.712Z" transform="translate(-90.962 -211.412)" fill="#fafafa"/>
              <path id="Path_12711" data-name="Path 12711" d="M94.954,213.785v4.942l-4.249-2.488V211.3Zm.191,5.468a.192.192,0,0,0,.191-.191v-5.386a.191.191,0,0,0-.095-.165L90.61,210.8a.191.191,0,0,0-.288.165v5.386a.191.191,0,0,0,.095.165l4.631,2.712A.192.192,0,0,0,95.145,219.253Z" transform="translate(-90.322 -210.772)" fill="#455a64"/>
            </g>
            <g id="Group_2512" data-name="Group 2512">
              <path id="Path_12712" data-name="Path 12712" d="M138.524,172.736v.389c0,.211-.148.3-.332.191l-16.439-9.49a.732.732,0,0,1-.332-.574v-.391c0-.211.148-.3.332-.191l16.439,9.491A.733.733,0,0,1,138.524,172.736Z" transform="translate(-121.422 -162.626)" fill="#e0e0e0"/>
              <path id="Path_12713" data-name="Path 12713" d="M138.524,182.962v.389c0,.211-.148.3-.332.191l-16.439-9.49a.733.733,0,0,1-.332-.574v-.391c0-.211.148-.3.332-.191l16.439,9.491A.733.733,0,0,1,138.524,182.962Z" transform="translate(-121.422 -170.499)" fill="#e0e0e0"/>
              <path id="Path_12714" data-name="Path 12714" d="M138.524,193.131v.389c0,.211-.148.3-.332.191l-16.439-9.49a.733.733,0,0,1-.332-.574v-.391c0-.211.148-.3.332-.191l16.439,9.491A.733.733,0,0,1,138.524,193.131Z" transform="translate(-121.422 -178.329)" fill="#e0e0e0"/>
            </g>
            <g id="Group_2513" data-name="Group 2513" transform="translate(18.657 9.904)">
              <path id="Path_12715" data-name="Path 12715" d="M99.89,212.505l1.077-1.037-.464-.982-.613.59-2.551-5.4-.464.447Z" transform="translate(-96.875 -205.676)" fill="#27debf"/>
            </g>
          </g>
        </g>
        <g id="Group_2517" data-name="Group 2517" transform="translate(18.465 24.9)">
          <path id="Path_12716" data-name="Path 12716" d="M100.633,137.29v9.791c0,.584-.41.821-.916.529l-8.479-4.9a2.024,2.024,0,0,1-.916-1.586v-9.791c0-.584.41-.821.916-.529l8.479,4.9A2.025,2.025,0,0,1,100.633,137.29Z" transform="translate(-90.322 -130.684)" fill="#27debf"/>
          <path id="Path_12717" data-name="Path 12717" d="M100.633,137.29v9.791c0,.584-.41.821-.916.529l-8.479-4.9a2.024,2.024,0,0,1-.916-1.586v-9.791c0-.584.41-.821.916-.529l8.479,4.9A2.025,2.025,0,0,1,100.633,137.29Z" transform="translate(-90.322 -130.684)" fill="#fff" opacity="0.7"/>
          <g id="Group_2516" data-name="Group 2516" transform="translate(1.628 3.782)">
            <path id="Path_12718" data-name="Path 12718" d="M106.814,147.366c-.977-.564-1.768-.107-1.768,1.021a3.908,3.908,0,0,0,1.768,3.062c.977.564,1.768.107,1.768-1.021A3.909,3.909,0,0,0,106.814,147.366Z" transform="translate(-103.286 -147.125)" fill="#fafafa"/>
            <path id="Path_12719" data-name="Path 12719" d="M97.856,164.689c.157-.817.995-.839,1.87-.334l2.4,1.385a3.883,3.883,0,0,1,1.87,2.493l.459,3.144L97.4,167.3Z" transform="translate(-97.397 -160.131)" fill="#fafafa"/>
          </g>
        </g>
        <g id="Group_2519" data-name="Group 2519" transform="translate(4.52 17.559)">
          <path id="Path_12720" data-name="Path 12720" d="M152.6,109.748v-3.33a.608.608,0,0,0-.275-.476L139.98,98.814c-.152-.088-.274-.017-.274.159l.006,3.334a.61.61,0,0,0,.275.476l12.339,7.124C152.478,109.994,152.6,109.923,152.6,109.748Z" transform="translate(-139.706 -98.777)" fill="#455a64"/>
          <g id="Group_2518" data-name="Group 2518" transform="translate(1.225 1.672)">
            <path id="Path_12721" data-name="Path 12721" d="M145.508,133.347a.025.025,0,0,0,.034,0,.058.058,0,0,0,.014-.044v-1.777a.137.137,0,0,0-.014-.06.092.092,0,0,0-.034-.042l-.234-.135a.026.026,0,0,0-.034,0,.058.058,0,0,0-.014.043v1.777a.142.142,0,0,0,.014.061.09.09,0,0,0,.034.041Z" transform="translate(-135.156 -125.476)" fill="#27debf"/>
            <path id="Path_12722" data-name="Path 12722" d="M147.984,130.064a.043.043,0,0,0,.049,0,.078.078,0,0,0,.024-.025l.409-.7v.93a.139.139,0,0,0,.014.06.089.089,0,0,0,.034.042l.234.135a.026.026,0,0,0,.034,0,.059.059,0,0,0,.014-.044v-1.777a.141.141,0,0,0-.014-.06.091.091,0,0,0-.034-.042l-.186-.107a.044.044,0,0,0-.049,0,.088.088,0,0,0-.024.025l-.409.7v-.93a.136.136,0,0,0-.014-.06.091.091,0,0,0-.034-.042l-.234-.135a.026.026,0,0,0-.034,0,.059.059,0,0,0-.014.044v1.777a.141.141,0,0,0,.014.061.09.09,0,0,0,.034.041Z" transform="translate(-138.977 -122.97)" fill="#27debf"/>
            <path id="Path_12723" data-name="Path 12723" d="M153.614,125.779a.47.47,0,0,0-.21-.07.3.3,0,0,0-.165.035.274.274,0,0,0-.109.113.349.349,0,0,0-.041.16.117.117,0,0,0,.012.049.072.072,0,0,0,.026.032l.234.135a.066.066,0,0,0,.04.012.064.064,0,0,0,.031-.015l.017-.018a.087.087,0,0,1,.033-.021.115.115,0,0,1,.054,0,.215.215,0,0,1,.079.03.545.545,0,0,1,.065.045.371.371,0,0,1,.055.054.25.25,0,0,1,.039.065.2.2,0,0,1,.015.078.083.083,0,0,1-.017.059.076.076,0,0,1-.057.018.468.468,0,0,1-.106-.016l-.164-.043a.548.548,0,0,0-.171-.022.2.2,0,0,0-.123.046.254.254,0,0,0-.073.123.767.767,0,0,0-.024.211.927.927,0,0,0,.041.274,1.1,1.1,0,0,0,.115.255,1.16,1.16,0,0,0,.175.221,1.11,1.11,0,0,0,.221.169.54.54,0,0,0,.221.078A.3.3,0,0,0,154,127.8a.273.273,0,0,0,.113-.117.4.4,0,0,0,.043-.182.114.114,0,0,0-.012-.049.073.073,0,0,0-.026-.033l-.234-.135a.077.077,0,0,0-.039-.013.06.06,0,0,0-.029.013.245.245,0,0,0-.021.023.124.124,0,0,1-.039.029.116.116,0,0,1-.061.01.211.211,0,0,1-.09-.032.675.675,0,0,1-.158-.123.218.218,0,0,1-.063-.151.06.06,0,0,1,.023-.055.121.121,0,0,1,.07-.011.642.642,0,0,1,.119.023l.17.043a.257.257,0,0,0,.269-.047.49.49,0,0,0,.085-.329.939.939,0,0,0-.035-.245,1.145,1.145,0,0,0-.1-.248,1.132,1.132,0,0,0-.16-.223A.879.879,0,0,0,153.614,125.779Z" transform="translate(-145.555 -121.185)" fill="#27debf"/>
            <path id="Path_12724" data-name="Path 12724" d="M158.612,121.69a.026.026,0,0,0-.034,0,.058.058,0,0,0-.014.044v1.1a1.588,1.588,0,0,0,.039.358,1.336,1.336,0,0,0,.112.309,1.121,1.121,0,0,0,.172.249.933.933,0,0,0,.22.178.526.526,0,0,0,.222.077.238.238,0,0,0,.172-.051.374.374,0,0,0,.111-.181,1.055,1.055,0,0,0,.039-.313v-1.1a.139.139,0,0,0-.014-.06.091.091,0,0,0-.034-.042l-.234-.135a.026.026,0,0,0-.034,0,.058.058,0,0,0-.014.044v1.086a.368.368,0,0,1-.052.228c-.035.042-.089.042-.16,0a.378.378,0,0,1-.16-.186.736.736,0,0,1-.052-.289v-1.086a.14.14,0,0,0-.015-.061.09.09,0,0,0-.034-.042Z" transform="translate(-152.318 -118.087)" fill="#27debf"/>
            <path id="Path_12725" data-name="Path 12725" d="M164.836,119.361a.643.643,0,0,0-.211-.084.228.228,0,0,0-.158.024.252.252,0,0,0-.1.139.805.805,0,0,0-.035.259,1.187,1.187,0,0,0,.055.374.975.975,0,0,0,.157.3l-.222.527a.075.075,0,0,0-.005.027.114.114,0,0,0,.012.049.072.072,0,0,0,.028.034l.243.14c.023.014.041.015.051,0a.126.126,0,0,0,.024-.035l.2-.474.164.095v.588a.142.142,0,0,0,.014.06.1.1,0,0,0,.034.042l.234.135a.026.026,0,0,0,.034,0,.059.059,0,0,0,.014-.044v-1.776a.142.142,0,0,0-.014-.06.092.092,0,0,0-.034-.042Zm.2.95-.2-.116a.375.375,0,0,1-.124-.116.328.328,0,0,1-.049-.188c0-.077.016-.12.049-.131a.159.159,0,0,1,.124.028l.2.116Z" transform="translate(-159.36 -116.23)" fill="#27debf"/>
            <path id="Path_12726" data-name="Path 12726" d="M169.694,116.2c-.024-.014-.042-.014-.054,0a.1.1,0,0,0-.026.046l-.39,1.508a.14.14,0,0,0-.007.037.117.117,0,0,0,.011.049.072.072,0,0,0,.028.034l.225.13c.024.014.041.016.051.006a.062.062,0,0,0,.019-.035l.05-.2.475.275.05.257a.209.209,0,0,0,.019.056.118.118,0,0,0,.051.053l.225.13a.021.021,0,0,0,.028,0,.047.047,0,0,0,.012-.035.23.23,0,0,0-.007-.046l-.389-1.957a.365.365,0,0,0-.026-.075.132.132,0,0,0-.055-.062Zm.289,1.369-.289-.167.145-.577Z" transform="translate(-165.579 -113.857)" fill="#27debf"/>
            <path id="Path_12727" data-name="Path 12727" d="M175.484,114.187a.043.043,0,0,0,.049,0,.082.082,0,0,0,.024-.025l.409-.7v.93a.143.143,0,0,0,.014.061.089.089,0,0,0,.034.041l.234.135a.026.026,0,0,0,.034,0,.058.058,0,0,0,.014-.044v-1.777a.136.136,0,0,0-.014-.06.09.09,0,0,0-.034-.042l-.186-.107a.044.044,0,0,0-.049,0,.087.087,0,0,0-.024.025l-.409.7v-.93a.137.137,0,0,0-.014-.06.091.091,0,0,0-.034-.042l-.234-.135a.026.026,0,0,0-.034,0,.059.059,0,0,0-.014.044v1.777a.141.141,0,0,0,.014.061.093.093,0,0,0,.034.041Z" transform="translate(-172.803 -110.745)" fill="#27debf"/>
            <path id="Path_12728" data-name="Path 12728" d="M181.466,110.661c0,.025,0,.058,0,.1s0,.086,0,.131,0,.089,0,.131,0,.076,0,.1a.575.575,0,0,1-.016.112.172.172,0,0,1-.039.079.1.1,0,0,1-.068.031.194.194,0,0,1-.1-.033.393.393,0,0,1-.1-.08.483.483,0,0,1-.064-.091.464.464,0,0,1-.038-.092c-.009-.031-.016-.058-.021-.083a.334.334,0,0,0-.02-.073.094.094,0,0,0-.041-.042l-.234-.135a.021.021,0,0,0-.028,0,.049.049,0,0,0-.012.036,1.092,1.092,0,0,0,.044.29,1.344,1.344,0,0,0,.118.283,1.361,1.361,0,0,0,.176.246.9.9,0,0,0,.219.18.465.465,0,0,0,.229.074.26.26,0,0,0,.173-.061.382.382,0,0,0,.11-.174.943.943,0,0,0,.044-.262c0-.074,0-.154,0-.24s0-.169,0-.249a1.436,1.436,0,0,0-.043-.313,1.466,1.466,0,0,0-.109-.3,1.235,1.235,0,0,0-.172-.26.9.9,0,0,0-.23-.192.488.488,0,0,0-.219-.073.3.3,0,0,0-.176.043.315.315,0,0,0-.118.147.618.618,0,0,0-.044.238.116.116,0,0,0,.012.049.073.073,0,0,0,.028.034l.234.135c.02.012.034.014.041.006a.116.116,0,0,0,.02-.05.41.41,0,0,1,.021-.06.11.11,0,0,1,.038-.048.105.105,0,0,1,.064-.016.22.22,0,0,1,.1.035.369.369,0,0,1,.1.085.483.483,0,0,1,.068.109.56.56,0,0,1,.039.124A.9.9,0,0,1,181.466,110.661Z" transform="translate(-179.557 -108.859)" fill="#27debf"/>
            <path id="Path_12729" data-name="Path 12729" d="M186.384,107.527a.026.026,0,0,0-.034,0,.059.059,0,0,0-.014.044v.291a.142.142,0,0,0,.014.061.094.094,0,0,0,.034.042l.847.489a.026.026,0,0,0,.034,0,.06.06,0,0,0,.014-.044v-1.777a.141.141,0,0,0-.014-.061.092.092,0,0,0-.034-.041l-.832-.481a.026.026,0,0,0-.034,0,.059.059,0,0,0-.014.044v.291a.142.142,0,0,0,.014.061.09.09,0,0,0,.034.042l.55.317v.3l-.511-.295a.026.026,0,0,0-.034,0,.06.06,0,0,0-.014.044v.291a.14.14,0,0,0,.014.061.089.089,0,0,0,.034.041l.511.3v.308Z" transform="translate(-186.336 -106.045)" fill="#27debf"/>
          </g>
        </g>
        <g id="Group_2520" data-name="Group 2520" transform="translate(6.334 23.771)">
          <path id="Path_12730" data-name="Path 12730" d="M150.513,131.9l-10.531-6.085c-.152-.088-.275-.017-.275.159v.358a.608.608,0,0,0,.275.476l10.531,6.085c.152.088.275.017.275-.159v-.358A.608.608,0,0,0,150.513,131.9Z" transform="translate(-139.707 -125.777)" fill="#27debf"/>
          <path id="Path_12731" data-name="Path 12731" d="M149.379,142.716l-9.4-5.43c-.152-.088-.275-.017-.275.159v.358a.608.608,0,0,0,.275.476l9.4,5.43c.152.088.275.017.275-.159v-.358A.608.608,0,0,0,149.379,142.716Z" transform="translate(-138.573 -134.609)" fill="#27debf"/>
          <path id="Path_12732" data-name="Path 12732" d="M147.44,155.1l-7.459-4.306c-.152-.088-.275-.017-.275.159v.358a.607.607,0,0,0,.275.476l7.459,4.306c.152.087.275.017.275-.159v-.358A.607.607,0,0,0,147.44,155.1Z" transform="translate(-136.634 -145.012)" fill="#27debf"/>
        </g>
      </g>
    </g>
    <g id="Character_1" data-name="Character 1" transform="translate(29.579 7.607)">
      <g id="Character" transform="translate(0 0)">
        <g id="Bottom" transform="translate(8.827 24.45)">
          <g id="Group_2521" data-name="Group 2521" transform="translate(13.049 30.212)">
            <path id="Path_12733" data-name="Path 12733" d="M245,300.255a2.147,2.147,0,0,1,.225,1.1,5.186,5.186,0,0,0-.127,1.516c.091.752.261.987.341,1.518a1.861,1.861,0,0,1-.293,1.411c-.31.505-1,.906-2.35.857-1.094-.039-1.535-.6-1.56-1.245Z" transform="translate(-241.232 -298.613)" fill="#263238"/>
            <path id="Path_12734" data-name="Path 12734" d="M244.811,293.2a2.723,2.723,0,0,1,.066.425c.041.253.116.5.177.744.016.066.031.132.045.2a8.04,8.04,0,0,1,.007,1.534,8.634,8.634,0,0,0,.317,1.789c.246,1.063.285,1.774-.645,2.511a2.527,2.527,0,0,1-1.649.419,2.606,2.606,0,0,1-1.37-.332c-.4-.293-.394-.54-.4-.635-.037-1.13.37-2.444.453-3.572a5.481,5.481,0,0,0,.02-.915c-.038-.374-.168-.744-.209-1.123a.64.64,0,0,1,.052-.414.665.665,0,0,1,.5-.227q.742-.1,1.489-.15a.449.449,0,0,1,.338.068c.1.087.1.233.124.361s.12.272.248.248a.215.215,0,0,0,.151-.188c.013-.085.048-.738.045-.824C244.576,293.122,244.751,293.094,244.811,293.2Z" transform="translate(-241.358 -293.119)" fill="#263238"/>
          </g>
          <g id="Group_2522" data-name="Group 2522" transform="translate(0 30.04)">
            <path id="Path_12735" data-name="Path 12735" d="M280.238,305.737a.845.845,0,0,0,.01.622,3.106,3.106,0,0,0,2.286.723,5.326,5.326,0,0,0,2.68-.816,3.058,3.058,0,0,1,1.644-.353,2.4,2.4,0,0,0,1.592-.527,1.508,1.508,0,0,0-.006-.854Z" transform="translate(-280.183 -301.734)" fill="#263238"/>
            <path id="Path_12736" data-name="Path 12736" d="M284.676,292.593a2.532,2.532,0,0,0-.133.281,2.267,2.267,0,0,1-.7.879,7.3,7.3,0,0,1-1.415.763c-.315.14-.645.18-.963.292a5.421,5.421,0,0,0-1.037.455.922.922,0,0,0-.057,1.523,4.516,4.516,0,0,0,3.141.345c.75-.18,1.6-.938,2.58-.975a3.835,3.835,0,0,0,2.214-.6,2.4,2.4,0,0,0-.153-1.447,4.662,4.662,0,0,1-.116-.991c0-.176.116-.68-.252-.741l-.038.377s-.069.128-.452.2c-.124.022-.222.184-.289.333-.052.115-.106.261-.232.258a.235.235,0,0,1-.192-.15,1.89,1.89,0,0,1-.072-.246.967.967,0,0,0-.58-.575,2.931,2.931,0,0,0-.68-.142c-.177-.027-.32-.1-.477.046A.584.584,0,0,0,284.676,292.593Z" transform="translate(-279.99 -292.374)" fill="#263238"/>
          </g>
          <g id="Group_2523" data-name="Group 2523" transform="translate(3.934)">
            <path id="Path_12737" data-name="Path 12737" d="M252.708,163.1c.473,4.626.662,6.824,1.268,16.053a26.558,26.558,0,0,1,.926,5.305c.132,2.239.45,8.992.45,8.992a4.466,4.466,0,0,1-3.9.8s-1.892-9.921-2.551-13.016c-.633-2.971-1.273-6.706-1.273-6.706l-.3,4.629s.084,1.843.026,4.6c-.031,1.474-.741,9.44-.741,9.44s-2.533,1.151-4.243-.327c0,0-.125-12.921-.15-14.254-.029-1.519.233-16.813.233-16.813Z" transform="translate(-242.223 -161.795)" fill="#37474f"/>
            <path id="Path_12738" data-name="Path 12738" d="M280.028,191.722l-1.139-6.3a5.712,5.712,0,0,1-3.107-1.291s.2,1.094,2.713,1.75l1.02,5.257.215,5.211Z" transform="translate(-274.62 -178.993)" fill="#263238"/>
            <path id="Path_12739" data-name="Path 12739" d="M245.252,292.769a4.115,4.115,0,0,1-2.777,1,5.218,5.218,0,0,0,2.759-1.4Z" transform="translate(-232.182 -262.334)" fill="#263238"/>
            <path id="Path_12740" data-name="Path 12740" d="M283.079,294.176a5.964,5.964,0,0,1-3.255.145,3.938,3.938,0,0,0,3.23.138Z" transform="translate(-278.601 -263.721)" fill="#263238"/>
          </g>
        </g>
        <g id="Top">
          <g id="Group_2524" data-name="Group 2524" transform="translate(0 11.576)">
            <path id="Path_12741" data-name="Path 12741" d="M288.922,108.488a.925.925,0,0,1-.07-.273c0-.07.049-.106.069-.171.049-.155-.045-.342.06-.482.035-.046.089-.077.123-.124s.051-.134.091-.193a.323.323,0,0,1,.341-.1,1.159,1.159,0,0,1,.482.3,9.778,9.778,0,0,0,1.562,1.3,1.5,1.5,0,0,0,.273.119c.063.02.214.084.231.011a1.006,1.006,0,0,0-.054-.28,4.24,4.24,0,0,1-.051-.452,1.074,1.074,0,0,1,.18-.823c.347-.323.259.42.8,1.124s.622,1.761,1.034,2.238l0,.005,2.846,2.595s2.229-3.165,3.437-4.94c1.286-1.89,1.97-1.768,3.552-2.029.624,2.062-1.48,6.094-1.48,6.094s-3.007,3.3-3.934,4.156a1.57,1.57,0,0,1-2.356.111c-.5-.472-2.513-2.889-3.077-3.591a5.569,5.569,0,0,0-1.423-1.357,12.511,12.511,0,0,1-1.277-.806,5.883,5.883,0,0,1-.885-.792,3.493,3.493,0,0,1-.374-.477,2.476,2.476,0,0,1-.166-.421,1.1,1.1,0,0,1-.1-.385.411.411,0,0,1,.161-.347Z" transform="translate(-288.764 -106.203)" fill="#b16668"/>
            <path id="Path_12742" data-name="Path 12742" d="M327.874,127.955l-1.1-.892a4.861,4.861,0,0,1-1.45,2l.959,1.346Z" transform="translate(-321.101 -122.179)" fill="#455a64"/>
            <path id="Path_12743" data-name="Path 12743" d="M298.249,105.833a5.781,5.781,0,0,0-2.752.678,12.231,12.231,0,0,0-2.4,2.873c-1.164,1.712-2.251,3.245-2.251,3.245l-1.875-1.725a5.85,5.85,0,0,1-1.386,2.855s1.992,2.376,2.549,2.842,1.327.78,2.441-.223,4.216-4.521,4.216-4.521Z" transform="translate(-282.795 -105.833)" fill="#e6e6e6"/>
          </g>
          <g id="Group_2525" data-name="Group 2525" transform="translate(13.148 11.378)">
            <path id="Path_12744" data-name="Path 12744" d="M253.166,105.034c.4.1,2.13.587,3.163.951a2.881,2.881,0,0,1,1.3,1c.75,1.1-.383,3.38-.935,7.964.042,2.961.127,6.641.127,6.641-1.361.991-7.949,1.537-10.813-.555,0,0,.144-10.981.333-12.426.362-2.765,1.445-3.5,3.68-3.634Z" transform="translate(-246.012 -104.973)" fill="#455a64"/>
          </g>
          <g id="Group_2529" data-name="Group 2529" transform="translate(13.632)">
            <g id="Group_2527" data-name="Group 2527">
              <g id="Group_2526" data-name="Group 2526">
                <path id="Path_12745" data-name="Path 12745" d="M258.254,58.183a1.77,1.77,0,0,1-.044-.305,1.254,1.254,0,0,1,.381-1,.865.865,0,0,1,1.027-.1,1.233,1.233,0,0,1,1.058-1.257,2.485,2.485,0,0,1,1.163.4,14.539,14.539,0,0,0,1.773.642,4.676,4.676,0,0,1,1.658.874A2.042,2.042,0,0,1,266,59.1a1.468,1.468,0,0,1,.785,1.306,5.5,5.5,0,0,1-.648,2.306s-.776,1.855-.962,2.22c-.216.424-.374.779-.374.779l.072-1.34a5.622,5.622,0,0,1-1.562-.277,9.959,9.959,0,0,1-1.45-.684,17.486,17.486,0,0,1-2.593-1.862,2.816,2.816,0,0,1-1-1.275,1.48,1.48,0,0,1,.3-1.35A2.686,2.686,0,0,1,258.254,58.183Z" transform="translate(-258.209 -55.516)" fill="#37474f"/>
                <path id="Path_12746" data-name="Path 12746" d="M262.2,70.068a2.605,2.605,0,0,0,.9,1.874,4.807,4.807,0,0,0-.038,1.623.884.884,0,0,0,.122.325.4.4,0,0,0,.285.181c.157.012.221-.084.269-.206a3.945,3.945,0,0,1,.238-.456.9.9,0,0,1,.139-.176.768.768,0,0,1,1.272.262,1.624,1.624,0,0,1-.854,1.966.776.776,0,0,1-1.032-.392l-.188,3.5c-.531.556-2.711,1.318-3.29,1.975-.26-.448-1.007-1.547-.024-2.172l.024-1.126a8.07,8.07,0,0,1-1.582-.078,1.461,1.461,0,0,1-1.1-1.331,13.689,13.689,0,0,1,0-4.486,2.566,2.566,0,0,1,.956-1.661c-.01.2.153.678,1.141.814A5.314,5.314,0,0,0,262.2,70.068Z" transform="translate(-256.667 -66.428)" fill="#b16668"/>
              </g>
              <path id="Path_12747" data-name="Path 12747" d="M268.5,98.475A5.477,5.477,0,0,0,270.557,98a1.938,1.938,0,0,0,.795-.737,2.513,2.513,0,0,1-.467.884c-.424.507-2.4.788-2.4.788Z" transform="translate(-265.136 -87.659)" fill="#9a4a4d"/>
            </g>
            <g id="Group_2528" data-name="Group 2528" transform="translate(0.773 5.313)">
              <path id="Path_12748" data-name="Path 12748" d="M276.089,84.115a.344.344,0,1,0,.356-.347A.35.35,0,0,0,276.089,84.115Z" transform="translate(-273.084 -82.581)" fill="#263238"/>
              <path id="Path_12749" data-name="Path 12749" d="M274.252,78.859l.794.431a.474.474,0,0,0-.189-.628A.441.441,0,0,0,274.252,78.859Z" transform="translate(-270.981 -78.609)" fill="#263238"/>
              <path id="Path_12750" data-name="Path 12750" d="M288.36,79.229l.842-.327a.474.474,0,0,0-.6-.262A.441.441,0,0,0,288.36,79.229Z" transform="translate(-288.323 -78.609)" fill="#263238"/>
              <path id="Path_12751" data-name="Path 12751" d="M279.314,93.2l-1.1.372a.57.57,0,0,0,.726.383A.607.607,0,0,0,279.314,93.2Z" transform="translate(-276.137 -89.846)" fill="#9a4a4d"/>
              <path id="Path_12752" data-name="Path 12752" d="M287.987,83.36a.347.347,0,1,0,.358-.35A.352.352,0,0,0,287.987,83.36Z" transform="translate(-287.724 -81.998)" fill="#263238"/>
              <path id="Path_12753" data-name="Path 12753" d="M284.164,84.538l-1.156-.23a3.38,3.38,0,0,1,1.357-2.034Z" transform="translate(-282.263 -81.431)" fill="#9a4a4d"/>
            </g>
          </g>
          <g id="Group_2530" data-name="Group 2530" transform="translate(15.163 12.984)">
            <path id="Path_12754" data-name="Path 12754" d="M279.8,118.918c-.2.692-1.389,5.551-1.222,7.262a10.622,10.622,0,0,0,.707,2.555c.515,1.218.858.128,1.146-.591a9.113,9.113,0,0,0,.483-2.077c.1-.918-.274-3.709-.133-6.98A.7.7,0,0,0,279.8,118.918Z" transform="translate(-278.562 -117.218)" fill="#27debf"/>
            <path id="Path_12755" data-name="Path 12755" d="M279.8,118.918c-.2.692-1.389,5.551-1.222,7.262a10.622,10.622,0,0,0,.707,2.555c.515,1.218.858.128,1.146-.591a9.113,9.113,0,0,0,.483-2.077c.1-.918-.274-3.709-.133-6.98A.7.7,0,0,0,279.8,118.918Z" transform="translate(-278.562 -117.218)" opacity="0.2"/>
            <path id="Path_12756" data-name="Path 12756" d="M275.321,112.093c-.471.4.044,1.56.044,1.56a1.334,1.334,0,0,1,.981.168s.938-.4.94-1.1c0-.632-.672-.43-1.15-.513C275.629,112.125,275.376,111.754,275.321,112.093Z" transform="translate(-274.127 -111.953)" fill="#27debf"/>
            <path id="Path_12757" data-name="Path 12757" d="M275.321,112.093c-.471.4.044,1.56.044,1.56a1.334,1.334,0,0,1,.981.168s.938-.4.94-1.1c0-.632-.672-.43-1.15-.513C275.629,112.125,275.376,111.754,275.321,112.093Z" transform="translate(-274.127 -111.953)" opacity="0.2"/>
            <path id="Path_12758" data-name="Path 12758" d="M275.122,114.579c.077-.271.446-.246.741-.339a.8.8,0,0,0,.4-.342c.152-.262,0-.7-.213-.742h0c.456.032,1-.071,1,.5,0,.694-.94,1.1-.94,1.1A1.333,1.333,0,0,0,275.122,114.579Z" transform="translate(-273.884 -112.879)" opacity="0.2"/>
          </g>
          <g id="Group_2533" data-name="Group 2533" transform="translate(17.099 10.528)">
            <g id="Group_2532" data-name="Group 2532">
              <g id="Group_2531" data-name="Group 2531">
                <path id="Path_12759" data-name="Path 12759" d="M263.177,103.978c.913-.192,3.042-1.068,3.251-2.122l.027-.579c.354,0,.517.4.69.961.073,1.49-1.5,2.85-3.077,3.216a2.734,2.734,0,0,0-.348-.979A1.122,1.122,0,0,0,263.177,103.978Z" transform="translate(-263.177 -101.277)" fill="#37474f"/>
              </g>
            </g>
          </g>
          <path id="Path_12760" data-name="Path 12760" d="M243.964,104.555s-.673,3.377-.964,5.663a118.492,118.492,0,0,0-.08,12.827c.113,2.982.559,8.493.559,8.493a7.988,7.988,0,0,0,2.512-.145,18.629,18.629,0,0,0,3.285-.686s-.795-8.148-1.007-11.073a28.18,28.18,0,0,1,0-4.542l1-5.968s.747-3.006-1.642-3.764A31.739,31.739,0,0,0,243.964,104.555Z" transform="translate(-223.623 -93.273)" fill="#f5f5f5"/>
          <path id="Path_12761" data-name="Path 12761" d="M261.739,109.935c-.006-.142.013-.447.038-.833.12-1.887-.053-4.617-.69-4.755l-.056.26c.466.1.539,3.561.481,4.478-.025.394-.045.705-.038.862Z" transform="translate(-240.249 -93.113)" fill="#27debf"/>
          <path id="Path_12762" data-name="Path 12762" d="M262.551,99.741c.188-.038.359.06.512.32s.566,1.039.566,1.039a8.633,8.633,0,0,1-.077,2.033c-.15.391-1.15,2.236-1.15,2.236s.066,1.794.081,2.328-1.021,2.77-1.137,3.808c0,0-.051-4.219.1-5.391a24.3,24.3,0,0,1,1.059-5.427Z" transform="translate(-242.163 -89.561)" fill="#e6e6e6"/>
          <g id="Group_2539" data-name="Group 2539" transform="translate(19.916 16.601)">
            <g id="Group_2534" data-name="Group 2534" transform="translate(0.048 0.047)">
              <path id="Path_12763" data-name="Path 12763" d="M258.533,134.31h.023l-.007-.186a1.2,1.2,0,0,1-.611-.227,2.275,2.275,0,0,0,.508-.46,9.328,9.328,0,0,0,.754-3.8c-.17-.541-.7-1.734-1.175-1.755h-.012c-.472,0-1.094,1.128-1.307,1.649a9.324,9.324,0,0,0,.429,3.855,2.277,2.277,0,0,0,.467.5,1.171,1.171,0,0,1-.628.174l-.023.185a1.447,1.447,0,0,0,.814-.236A1.487,1.487,0,0,0,258.533,134.31Zm-.522-6.247h.006c.278.012.777.9,1,1.624a9.219,9.219,0,0,1-.724,3.634.5.5,0,0,1-1.008-.043,9.212,9.212,0,0,1-.413-3.683C257.165,128.9,257.731,128.063,258.011,128.063Z" transform="translate(-256.626 -127.877)" fill="#455a64"/>
            </g>
            <g id="Group_2535" data-name="Group 2535" transform="translate(0.111 6.045)">
              <path id="Path_12764" data-name="Path 12764" d="M265.331,154.213a.274.274,0,1,0,.285-.262A.274.274,0,0,0,265.331,154.213Z" transform="translate(-265.331 -153.951)" fill="#263238"/>
            </g>
            <g id="Group_2536" data-name="Group 2536" transform="translate(1.701 6.113)">
              <path id="Path_12765" data-name="Path 12765" d="M258.418,154.507a.274.274,0,1,0,.285-.262A.274.274,0,0,0,258.418,154.507Z" transform="translate(-258.418 -154.245)" fill="#263238"/>
            </g>
            <g id="Group_2538" data-name="Group 2538">
              <g id="Group_2537" data-name="Group 2537">
                <path id="Path_12766" data-name="Path 12766" d="M256.5,130.591l.157-.011a.062.062,0,0,0,.056-.066,3.153,3.153,0,0,1,.049-1.057c.275-.672.846-1.515,1.094-1.5s.745.9.963,1.592a3.157,3.157,0,0,1-.041,1.057.061.061,0,0,0,.051.07l.156.024a.062.062,0,0,0,.07-.053,3.172,3.172,0,0,0,.032-1.182c-.117-.372-.665-1.764-1.217-1.787s-1.217,1.317-1.365,1.677a3.165,3.165,0,0,0-.069,1.18A.063.063,0,0,0,256.5,130.591Z" transform="translate(-256.418 -127.675)" fill="#27debf"/>
              </g>
            </g>
          </g>
          <g id="Group_2540" data-name="Group 2540" transform="translate(12.071 10.841)">
            <path id="Path_12767" data-name="Path 12767" d="M285.821,102.64c-.267.163-.834.537-.834.537-1.055.313-1.731.436-2.159,1.008-.707.945-1.236,2.008-1.413,6.794s-.515,18.057-.515,18.057a3.749,3.749,0,0,0,2.41.4s-.042-15.041.059-18.423.613-5.032,1.345-6.147a3.769,3.769,0,0,1,1.1-1.9Z" transform="translate(-280.901 -102.64)" fill="#f5f5f5"/>
            <path id="Path_12768" data-name="Path 12768" d="M282.847,104.948c-.732,1.115-1.179,2.631-1.28,6.014-.012.4-.056,1.237-.065,1.917,0,0-.109-.522-.208-1.048a12.915,12.915,0,0,1-.375-2.894,10.193,10.193,0,0,1,.812-2,6.048,6.048,0,0,1,.6-3.157,2.1,2.1,0,0,1,.374-.487,3.372,3.372,0,0,1,.455-.31,1.678,1.678,0,0,1,.827-.343l-.007.316A4.108,4.108,0,0,0,282.847,104.948Z" transform="translate(-279.066 -102.64)" fill="#e6e6e6"/>
            <path id="Path_12769" data-name="Path 12769" d="M281.742,104.014a2.322,2.322,0,0,0-.79.6,2.613,2.613,0,0,0-.3,2.623,2.229,2.229,0,0,1,.469-.794,1.223,1.223,0,0,1,.731-.363,1.291,1.291,0,0,1-.13-1.286Z" transform="translate(-276.828 -103.698)" fill="#37474f"/>
          </g>
          <g id="Group_2542" data-name="Group 2542" transform="translate(23.12 12.087)">
            <g id="Group_2541" data-name="Group 2541">
              <path id="Path_12770" data-name="Path 12770" d="M192.817,109.427a2.959,2.959,0,0,1,2.673,2.086c.388,1.131.889,3.871,1.469,5.658a34.373,34.373,0,0,0,3.964-2.112,8.529,8.529,0,0,0,1.237-1.455,5.65,5.65,0,0,0,.588-.9,4.586,4.586,0,0,0,.433-1.089c.13-.379.693-.018.686.658a3.362,3.362,0,0,1-.129,1.011c.243-.023.868-.025.978-.034.383-.031,1.557-.011,1.439.611-.026.139-.121.267-.108.408a.9.9,0,0,0,.057.194.715.715,0,0,1-.17.707.565.565,0,0,0-.171.289.91.91,0,0,1-.111.342,1.451,1.451,0,0,1-.221.194,1.118,1.118,0,0,0-.218.311,1.369,1.369,0,0,1-.208.319c-.21.217-.546.161-.819.158a11.5,11.5,0,0,0-1.218-.052c-.721.167-3.35,2.49-5.6,3.714-.771.419-1.4.627-1.889.369h.005c-.412-.163-.614-.614-.878-1.261-.6-1.512-2.143-5.546-2.143-5.546A6.542,6.542,0,0,1,192.817,109.427Z" transform="translate(-191.884 -109.111)" fill="#b16668"/>
              <path id="Path_12771" data-name="Path 12771" d="M210.183,134.566l1.266-.661a3.109,3.109,0,0,0,1.106,2.2l-1.253,1.038A2.853,2.853,0,0,1,210.183,134.566Z" transform="translate(-202.41 -127.958)" fill="#455a64"/>
              <path id="Path_12772" data-name="Path 12772" d="M213.758,108.055c-.315.335-1.236,3.042-.745,4.45s2.351,6.188,2.645,6.815.789,1.081,2.194.55a30.926,30.926,0,0,0,4.541-2.849,5.988,5.988,0,0,1-1.211-2.746l-3.1,1.383s-.853-3.685-1.246-4.987A3.4,3.4,0,0,0,213.758,108.055Z" transform="translate(-212.872 -108.055)" fill="#e6e6e6"/>
              <path id="Path_12773" data-name="Path 12773" d="M200.246,127.4c-.363-.006-.527.182-.675.658a1.352,1.352,0,0,1-.718.878.764.764,0,0,0,.454-.039c.193-.1.239-.1.29.008a.553.553,0,0,0,.17.191.384.384,0,0,0-.179.423c.065.291.72.516,1.351.418,0,0-.964-.02-1.074-.365s.469-.538.845-.517c0,0-.91-.081-.946-.4s.382-.413.92-.373c0,0-.739-.107-.779-.383C199.855,127.558,200.122,127.463,200.246,127.4Z" transform="translate(-188.191 -122.948)" fill="#9a4a4d"/>
            </g>
          </g>
        </g>
      </g>
    </g>
    <g id="Shield" transform="translate(52.762 40.126)">
      <g id="Shield-2" data-name="Shield" transform="translate(0)">
        <g id="Group_2565" data-name="Group 2565">
          <path id="Path_12826" data-name="Path 12826" d="M154.457,198.862c-.02-.261.038-.424.152-.492a0,0,0,0,0,0,0l.016-.011c.122-.06.925-.575,1.039-.642a0,0,0,0,0,0,0l.016-.011c.122-.06.306-.013.531.146a7.641,7.641,0,0,0,7.521.818,5.247,5.247,0,0,0,.84-.833c.013-.016.025-.032.038-.046h0a.847.847,0,0,1,.216-.19s.979-.614,1.052-.656l.036-.022c.242-.125.47-.013.631.346,2.252,5.087,6.853,10.162,9.847,11.368a1.671,1.671,0,0,1,.6.413,1.239,1.239,0,0,1,.356.834c.226,6.631-3.044,17.352-9.806,21.127a11.976,11.976,0,0,1-1.238.763C156.493,222.325,154.725,206.72,154.457,198.862Z" transform="translate(-154.453 -196.868)" fill="#27debf"/>
          <path id="Path_12827" data-name="Path 12827" d="M213.7,201.056c.122-.06.306-.013.531.146,2.612,1.862,6.283,1.972,8.567.168a7.639,7.639,0,0,1-7.515-.822c-.225-.159-.409-.205-.531-.146l-.015.011a0,0,0,0,1,0,0C214.629,200.483,213.827,201,213.7,201.056Z" transform="translate(-213.536 -199.57)" fill="#fff" opacity="0.4"/>
          <path id="Path_12828" data-name="Path 12828" d="M155.07,197.572c.242-.124.47-.013.631.346,2.252,5.089,6.853,10.162,9.847,11.368a1.669,1.669,0,0,1,.6.413,1.5,1.5,0,0,1,.228.326l1.049-.654a1.435,1.435,0,0,0-.225-.326,1.671,1.671,0,0,0-.6-.413c-2.994-1.206-7.6-6.282-9.848-11.368-.16-.359-.389-.47-.63-.346l-.036.022c-.034.02-.241.148-.466.288S155.158,197.519,155.07,197.572Z" transform="translate(-144.664 -196.869)" fill="#27debf"/>
          <path id="Path_12829" data-name="Path 12829" d="M154.453,272.838c6.753-3.778,10.02-14.492,9.794-21.117a1.142,1.142,0,0,0-.131-.508l-1.049.655a1.107,1.107,0,0,1,.129.508C163.41,258.652,160.5,268.589,154.453,272.838Z" transform="translate(-141.36 -238.71)" opacity="0.3"/>
        </g>
        <path id="Path_12830" data-name="Path 12830" d="M159.028,201.057c.268,7.858,2.036,23.464,11.839,32.907,6.89-3.679,10.221-14.542,9.992-21.234a1.238,1.238,0,0,0-.356-.834,1.669,1.669,0,0,0-.6-.413c-2.994-1.207-7.6-6.282-9.847-11.368-.16-.359-.389-.471-.631-.346h0l-.036.022a.844.844,0,0,0-.216.19h0c-.013.014-.026.03-.038.046-2.115,2.639-6.446,2.784-9.413.67-.225-.159-.409-.205-.531-.146l-.016.011a0,0,0,0,1,0,0C159.066,200.632,159.008,200.8,159.028,201.057Z" transform="translate(-159.024 -199.063)" fill="#27debf"/>
        <path id="Path_12831" data-name="Path 12831" d="M160.4,199.768c.242-.125.47-.013.631.346,2.252,5.087,6.853,10.162,9.847,11.368a1.669,1.669,0,0,1,.6.413,1.238,1.238,0,0,1,.356.834c.228,6.692-3.1,17.555-9.992,21.234A73,73,0,0,1,160.4,199.768Z" transform="translate(-149.99 -199.063)" opacity="0.1"/>
        <g id="Group_2566" data-name="Group 2566" transform="translate(3.721 11.28)">
          <path id="Path_12832" data-name="Path 12832" d="M201.687,257.862a36.971,36.971,0,0,1-.109-3.991l-3.691-2.043a33.38,33.38,0,0,1,.027-4.115c-1.4-.749-2-1.066-3.441-1.81a36.939,36.939,0,0,0-.214,3.991h0c-1.433-.75-1.89-.988-3.366-1.734a30.3,30.3,0,0,0,.57,4.19c1.5.755,1.6.8,3.048,1.549.231,1.59.424,2.565.742,4.057,1.318.687,1.95,1.033,3.257,1.778a32.036,32.036,0,0,1-.616-3.982C199.23,256.522,200.348,257.131,201.687,257.862Z" transform="translate(-190.893 -245.902)" fill="#fafafa"/>
          <path id="Path_12833" data-name="Path 12833" d="M192.573,254.921l3.691,2.043a36.979,36.979,0,0,0,.109,3.991c-1.339-.731-2.457-1.34-3.792-2.113a32.038,32.038,0,0,0,.616,3.982c-.7-.4-1.2-.682-1.725-.965a75.746,75.746,0,0,1-.535-11.94c.492.259.984.521,1.664.886A33.377,33.377,0,0,0,192.573,254.921Z" transform="translate(-185.58 -248.996)" fill="#ebebeb"/>
        </g>
        <path id="Path_12834" data-name="Path 12834" d="M229.456,212.964a7.977,7.977,0,0,1-5.692-.857s.2,13.879,5.276,22.685c-2.122-6.941-1.975-8.383-2.286-13.572C226.447,216.121,227.708,214.3,229.456,212.964Z" transform="translate(-222.503 -208.601)" fill="#fff" opacity="0.4"/>
      </g>
    </g>
  </g>
</svg>
