<svg xmlns="http://www.w3.org/2000/svg" width="60.582" height="59.039" viewBox="0 0 60.582 59.039">
  <g id="vector" transform="translate(0 -6.52)">
    <path id="Path_12537" data-name="Path 12537" d="M261.772,103v30.378a4.045,4.045,0,0,1-4.045,4.043H232.236a4.046,4.046,0,0,1-4.045-4.043V103a4.088,4.088,0,0,1,1.893-3.424A8.666,8.666,0,0,0,233.62,95l.021-.061a11.25,11.25,0,0,0,.552-3.788h21.578a11.19,11.19,0,0,0,.572,3.85,8.66,8.66,0,0,0,3.536,4.575A4.084,4.084,0,0,1,261.772,103Z" transform="translate(-201.191 -74.619)" fill="#ffebdc"/>
    <g id="Group_2487" data-name="Group 2487" transform="translate(27 16.533)">
      <path id="Path_12538" data-name="Path 12538" d="M237.768,127.191v33.831a4.023,4.023,0,0,1-4.019,4.019H230.1a4.039,4.039,0,0,1-1.909-3.433V131.231a4.088,4.088,0,0,1,1.893-3.424,8.666,8.666,0,0,0,3.536-4.575l.021-.061h.109A4.024,4.024,0,0,1,237.768,127.191Z" transform="translate(-228.191 -119.381)" fill="#ffdbb1"/>
      <path id="Path_12539" data-name="Path 12539" d="M244.581,372.662a9.257,9.257,0,0,1-1.3,4.741H232.241a4.045,4.045,0,0,1-4.044-4.043v-6.778a9.335,9.335,0,0,1,2.305-1.94,9.087,9.087,0,0,1,.845-.444c.158-.073.305-.136.45-.194a9.263,9.263,0,0,1,3.1-.658h.038c.107,0,.214,0,.323,0a9.322,9.322,0,0,1,9.323,9.323Z" transform="translate(-228.196 -331.131)" fill="#ffdbb1"/>
      <path id="Path_12540" data-name="Path 12540" d="M274.077,94.992a11.213,11.213,0,0,0,.573-3.851h21.577a11.212,11.212,0,0,0,.573,3.851Z" transform="translate(-268.648 -91.141)" fill="#ffdbb1"/>
      <path id="Path_12541" data-name="Path 12541" d="M450.659,102.991v30.378a4.043,4.043,0,0,1-3.7,4.029,4.036,4.036,0,0,0,1.473-3.121V103.9a4.089,4.089,0,0,0-1.893-3.424c-3.878-2.51-4.155-6.8-4.108-8.425v-.908h2.225c-.046,1.626.231,5.915,4.109,8.425A4.088,4.088,0,0,1,450.659,102.991Z" transform="translate(-417.078 -91.141)" fill="#ffdbb1"/>
    </g>
    <path id="Path_12542" data-name="Path 12542" d="M281.671,22.44h-25.16a.975.975,0,0,1-.975-.975V12.071a.975.975,0,0,1,.975-.975h25.16a.975.975,0,0,1,.975.975v9.394A.975.975,0,0,1,281.671,22.44Z" transform="translate(-225.3 -4.035)" fill="#b5f2d9"/>
    <g id="Group_2488" data-name="Group 2488" transform="translate(30.236 6.52)">
      <path id="Path_12543" data-name="Path 12543" d="M281.671,93.012h-25.16a.975.975,0,0,1-.975-.975v-.9h27.11v.9A.975.975,0,0,1,281.671,93.012Z" transform="translate(-255.536 -81.127)" fill="#20cfa2"/>
      <path id="Path_12544" data-name="Path 12544" d="M283.825,19.1a.914.914,0,0,1-.914-.914V7.434a.914.914,0,1,1,1.828,0V18.186A.914.914,0,0,1,283.825,19.1Z" transform="translate(-279.672 -6.52)" fill="#20cfa2"/>
      <path id="Path_12545" data-name="Path 12545" d="M336.8,19.1a.914.914,0,0,1-.914-.914V7.434a.914.914,0,0,1,1.828,0V18.186A.914.914,0,0,1,336.8,19.1Z" transform="translate(-326.375 -6.52)" fill="#20cfa2"/>
      <path id="Path_12546" data-name="Path 12546" d="M389.769,19.1a.914.914,0,0,1-.914-.914V7.434a.914.914,0,1,1,1.828,0V18.186A.914.914,0,0,1,389.769,19.1Z" transform="translate(-373.08 -6.52)" fill="#20cfa2"/>
      <path id="Path_12547" data-name="Path 12547" d="M442.741,19.1a.914.914,0,0,1-.914-.914V7.434a.914.914,0,1,1,1.828,0V18.186A.914.914,0,0,1,442.741,19.1Z" transform="translate(-419.784 -6.52)" fill="#20cfa2"/>
    </g>
    <g id="Group_2489" data-name="Group 2489" transform="translate(34.938 21.466)">
      <path id="Path_12548" data-name="Path 12548" d="M305.325,134.665h-9.14a.914.914,0,1,1,0-1.828h9.14a.914.914,0,1,1,0,1.828Z" transform="translate(-295.271 -132.837)" fill="#ffdbb1"/>
      <path id="Path_12549" data-name="Path 12549" d="M399.091,134.665h-1.852a.914.914,0,0,1,0-1.828h1.852a.914.914,0,1,1,0,1.828Z" transform="translate(-384.367 -132.837)" fill="#ffdbb1"/>
    </g>
    <rect id="Rectangle_143" data-name="Rectangle 143" width="23.451" height="19.901" transform="translate(32.066 33.642)" fill="#ff407e"/>
    <rect id="Rectangle_144" data-name="Rectangle 144" width="4.509" height="19.901" transform="translate(32.066 33.642)" fill="#e2035a"/>
    <rect id="Rectangle_145" data-name="Rectangle 145" width="23.451" height="5.507" transform="translate(32.066 48.035)" fill="#b5f2d9"/>
    <g id="Group_2490" data-name="Group 2490" transform="translate(32.065 48.036)">
      <rect id="Rectangle_146" data-name="Rectangle 146" width="4.509" height="5.507" transform="translate(0)" fill="#20cfa2"/>
      <path id="Path_12550" data-name="Path 12550" d="M281.149,368.14H271v-4.589a9.418,9.418,0,0,1,1.637-.208h.038c.107,0,.214,0,.323,0a9.27,9.27,0,0,1,7.908,4.384C280.988,367.858,281.071,368,281.149,368.14Z" transform="translate(-270.997 -362.633)" fill="#20cfa2"/>
    </g>
    <path id="Path_12551" data-name="Path 12551" d="M340.365,373.846a.914.914,0,0,1-.914.914h-7.387a.914.914,0,0,1-.914-.914.916.916,0,0,1,.914-.914h7.387A.914.914,0,0,1,340.365,373.846Z" transform="translate(-291.967 -323.057)" fill="#ff407e"/>
    <path id="Path_12552" data-name="Path 12552" d="M332.852,378.248h-.787a.914.914,0,0,1-.914-.914.9.9,0,0,1,.117-.446A9.216,9.216,0,0,1,332.852,378.248Z" transform="translate(-291.967 -326.545)" fill="#e2035a"/>
    <g id="Group_2491" data-name="Group 2491" transform="translate(0 22.152)">
      <path id="Path_12553" data-name="Path 12553" d="M343.08,268.029H342v-1.085a1.44,1.44,0,0,0-1.44-1.44h0a1.44,1.44,0,0,0-1.44,1.44v1.085h-1.085a1.44,1.44,0,0,0-1.44,1.44h0a1.44,1.44,0,0,0,1.44,1.44h1.085v1.085a1.44,1.44,0,0,0,1.44,1.44h0a1.44,1.44,0,0,0,1.44-1.44v-1.085h1.085a1.44,1.44,0,0,0,1.44-1.44h0A1.44,1.44,0,0,0,343.08,268.029Z" transform="translate(-296.764 -250.492)" fill="#b5f2d9"/>
      <path id="Path_12554" data-name="Path 12554" d="M34.749,140.819V174.65a2.19,2.19,0,0,1-2.19,2.191H19.43a2.188,2.188,0,0,1-1.991-1.285A2.192,2.192,0,0,1,16,176.77a2.157,2.157,0,0,1-.55.071H2.188A2.19,2.19,0,0,1,0,174.65V140.819a2.19,2.19,0,0,1,2.188-2.191H15.446a2.19,2.19,0,0,1,1.992,1.284,2.189,2.189,0,0,1,1.991-1.284h13.13A2.19,2.19,0,0,1,34.749,140.819Z" transform="translate(0 -138.628)" fill="#b5f2d9"/>
    </g>
    <g id="Group_2492" data-name="Group 2492" transform="translate(3.405 22.152)">
      <path id="Path_12555" data-name="Path 12555" d="M151.878,363.126v9.408a2.19,2.19,0,0,1-2.19,2.191h-13.13a2.188,2.188,0,0,1-1.991-1.285,2.191,2.191,0,0,1-1.442,1.215,9.323,9.323,0,0,1,13.583-10.406c.191-.106.381-.2.572-.29.158-.073.306-.136.45-.193a9.265,9.265,0,0,1,3.1-.659h.038c.107,0,.214,0,.323,0Q151.536,363.1,151.878,363.126Z" transform="translate(-120.533 -336.512)" fill="#20cfa2"/>
      <path id="Path_12556" data-name="Path 12556" d="M265.219,140.819v33.832a2.19,2.19,0,0,1-2.189,2.19H261.4a2.191,2.191,0,0,0,2.19-2.19V140.819a2.191,2.191,0,0,0-2.19-2.19h1.63A2.19,2.19,0,0,1,265.219,140.819Z" transform="translate(-233.875 -138.629)" fill="#20cfa2"/>
      <path id="Path_12557" data-name="Path 12557" d="M140.565,187.866a.914.914,0,0,1-.914-.914V163.533a.914.914,0,0,1,1.828,0v23.419A.914.914,0,0,1,140.565,187.866Z" transform="translate(-126.532 -159.78)" fill="#20cfa2"/>
      <path id="Path_12558" data-name="Path 12558" d="M37.521,396.962H34.947a.914.914,0,0,1,0-1.828h2.574a.914.914,0,0,1,0,1.828Z" transform="translate(-33.411 -364.783)" fill="#20cfa2"/>
      <path id="Path_12559" data-name="Path 12559" d="M57.25,421.532h-22.3a.914.914,0,1,1,0-1.828h22.3a.914.914,0,0,1,0,1.828Z" transform="translate(-33.411 -386.446)" fill="#20cfa2"/>
      <path id="Path_12560" data-name="Path 12560" d="M37.821,184.8a5.3,5.3,0,1,1,1.552-3.747A5.264,5.264,0,0,1,37.821,184.8Z" transform="translate(-28.775 -171.362)" fill="#20cfa2"/>
    </g>
    <circle id="Ellipse_35" data-name="Ellipse 35" cx="3.797" cy="3.797" r="3.797" transform="translate(4.907 28.047)" fill="#fead44"/>
    <path id="Path_12561" data-name="Path 12561" d="M56.632,212.216a.914.914,0,0,1-.914-.914v-.751a.914.914,0,1,1,1.828,0v.751A.914.914,0,0,1,56.632,212.216Z" transform="translate(-49.125 -179.082)" fill="#ffcd72"/>
    <path id="Path_12562" data-name="Path 12562" d="M37.82,284.225a5.3,5.3,0,1,1,1.552-3.747A5.264,5.264,0,0,1,37.82,284.225Z" transform="translate(-25.369 -236.87)" fill="#20cfa2"/>
    <circle id="Ellipse_36" data-name="Ellipse 36" cx="3.797" cy="3.797" r="3.797" transform="translate(4.907 39.81)" fill="#fead44"/>
    <path id="Path_12563" data-name="Path 12563" d="M56.632,311.64a.914.914,0,0,1-.914-.914v-.751a.914.914,0,1,1,1.828,0v.751A.914.914,0,0,1,56.632,311.64Z" transform="translate(-49.125 -266.742)" fill="#ffcd72"/>
    <path id="Path_12564" data-name="Path 12564" d="M184.378,184.8a5.3,5.3,0,1,1,1.552-3.747A5.265,5.265,0,0,1,184.378,184.8Z" transform="translate(-154.586 -149.21)" fill="#20cfa2"/>
    <circle id="Ellipse_37" data-name="Ellipse 37" cx="3.797" cy="3.797" r="3.797" transform="translate(22.247 28.047)" fill="#fead44"/>
    <path id="Path_12565" data-name="Path 12565" d="M203.188,212.216a.914.914,0,0,1-.914-.914v-.751a.914.914,0,1,1,1.828,0v.751A.914.914,0,0,1,203.188,212.216Z" transform="translate(-178.34 -179.082)" fill="#ffcd72"/>
    <path id="Path_12566" data-name="Path 12566" d="M184.378,284.224a5.3,5.3,0,1,1,1.552-3.747A5.265,5.265,0,0,1,184.378,284.224Z" transform="translate(-154.586 -236.869)" fill="#20cfa2"/>
    <circle id="Ellipse_38" data-name="Ellipse 38" cx="3.797" cy="3.797" r="3.797" transform="translate(22.247 39.81)" fill="#fead44"/>
    <path id="Path_12567" data-name="Path 12567" d="M203.188,311.64a.914.914,0,0,1-.914-.914v-.751a.914.914,0,1,1,1.828,0v.751A.914.914,0,0,1,203.188,311.64Z" transform="translate(-178.34 -266.742)" fill="#ffcd72"/>
    <path id="Path_12568" data-name="Path 12568" d="M239.51,386.265a7.5,7.5,0,0,1-10.335,6.941c-.12-.05-.24-.1-.358-.158a7.3,7.3,0,0,1-.673-.359,7.5,7.5,0,0,1,.045-12.874,6.984,6.984,0,0,1,.675-.355c.118-.055.239-.107.36-.155a7.443,7.443,0,0,1,2.5-.532c.1,0,.192,0,.29,0a7.5,7.5,0,0,1,7.5,7.5Z" transform="translate(-197.95 -328.202)" fill="#6cbeff"/>
    <g id="Group_2493" data-name="Group 2493" transform="translate(26.565 51.103)">
      <path id="Path_12569" data-name="Path 12569" d="M229.579,396.825c-.131.131-.267.259-.405.381-.12-.05-.24-.1-.358-.158a7.29,7.29,0,0,1-.673-.359,7.5,7.5,0,0,1,.045-12.874,6.984,6.984,0,0,1,.675-.355c.118-.055.239-.107.36-.155.12.108.24.22.355.336A9.335,9.335,0,0,1,229.579,396.825Z" transform="translate(-224.515 -383.304)" fill="#0095f2"/>
      <path id="Path_12570" data-name="Path 12570" d="M265.149,454.735h-4.933a.914.914,0,1,1,0-1.828h4.933a.914.914,0,1,1,0,1.828Z" transform="translate(-255.185 -444.671)" fill="#0095f2"/>
    </g>
    <circle id="Ellipse_39" data-name="Ellipse 39" cx="7.497" cy="7.497" r="7.497" transform="translate(17.54 50.534)" fill="#a3e9fb"/>
    <path id="Path_12571" data-name="Path 12571" d="M180.446,437.84a.911.911,0,0,1-.647-.268l-3.488-3.488a.914.914,0,0,1,0-1.293.931.931,0,0,1,1.34.047l3.488,3.489a.9.9,0,0,1-.047,1.246A.912.912,0,0,1,180.446,437.84Z" transform="translate(-155.213 -375.601)" fill="#6cbeff"/>
  </g>
</svg>
