<svg xmlns="http://www.w3.org/2000/svg" width="62.39" height="72.132" viewBox="0 0 62.39 72.132">
  <g id="vector" transform="translate(1714.492 -463.52)">
    <g id="Group_2494" data-name="Group 2494" transform="translate(-1714.492 463.52)">
      <rect id="Rectangle_147" data-name="Rectangle 147" width="47.955" height="68.425" transform="translate(2.654 3.707)" fill="#2e6b99"/>
      <rect id="Rectangle_148" data-name="Rectangle 148" width="38.478" height="59.327" transform="translate(7.186 8.327)" fill="#fff"/>
      <path id="Path_12572" data-name="Path 12572" d="M-1545.956,673.764H-1584.6V614.273h38.642Zm-38.478-.164h38.314V614.437h-38.314Z" transform="translate(1591.702 -606.028)" fill="#0e2549"/>
      <path id="Path_12573" data-name="Path 12573" d="M-1528.587,834.666a.082.082,0,0,0-.115-.011l-1.81,1.492a3.284,3.284,0,0,0-2.567-1.236,3.286,3.286,0,0,0-2.685,1.393l-.232-.249a.082.082,0,0,0-.116,0,.082.082,0,0,0,0,.116l.258.277a3.268,3.268,0,0,0-.51,1.755,3.292,3.292,0,0,0,3.289,3.289,3.292,3.292,0,0,0,3.289-3.289,3.269,3.269,0,0,0-.622-1.922l1.815-1.5A.082.082,0,0,0-1528.587,834.666Zm-4.492.409a3.119,3.119,0,0,1,2.44,1.177l-2.926,2.412-2.085-2.237A3.123,3.123,0,0,1-1533.079,835.075Zm3.125,3.125a3.128,3.128,0,0,1-3.125,3.125,3.128,3.128,0,0,1-3.125-3.125,3.105,3.105,0,0,1,.461-1.631l2.163,2.321,3.04-2.506A3.106,3.106,0,0,1-1529.955,838.2Z" transform="translate(1546.11 -814.339)" fill="#0e2549"/>
      <path id="Path_12574" data-name="Path 12574" d="M-1537.051,1044.229a.082.082,0,0,0-.115-.011l-1.81,1.492a3.284,3.284,0,0,0-2.567-1.236,3.286,3.286,0,0,0-2.685,1.393l-.232-.249a.082.082,0,0,0-.116,0,.082.082,0,0,0,0,.116l.259.277a3.268,3.268,0,0,0-.51,1.755,3.292,3.292,0,0,0,3.289,3.289,3.293,3.293,0,0,0,3.289-3.289,3.27,3.27,0,0,0-.622-1.921l1.815-1.5A.082.082,0,0,0-1537.051,1044.229Zm-4.493.409a3.12,3.12,0,0,1,2.441,1.177l-2.926,2.412-2.085-2.237A3.123,3.123,0,0,1-1541.543,1044.638Zm3.125,3.125a3.128,3.128,0,0,1-3.125,3.125,3.128,3.128,0,0,1-3.125-3.125,3.107,3.107,0,0,1,.461-1.631l2.163,2.321,3.04-2.506A3.106,3.106,0,0,1-1538.419,1047.762Z" transform="translate(1554.111 -1012.441)" fill="#0e2549"/>
      <path id="Path_12575" data-name="Path 12575" d="M-1539.764,1253.795a.082.082,0,0,0-.116-.011l-1.81,1.492a3.284,3.284,0,0,0-2.567-1.237,3.287,3.287,0,0,0-2.685,1.394l-.232-.249a.082.082,0,0,0-.116,0,.082.082,0,0,0,0,.116l.258.277a3.267,3.267,0,0,0-.51,1.755,3.292,3.292,0,0,0,3.289,3.289,3.292,3.292,0,0,0,3.289-3.289,3.271,3.271,0,0,0-.622-1.922l1.815-1.5A.082.082,0,0,0-1539.764,1253.795Zm-4.493.409a3.119,3.119,0,0,1,2.44,1.177l-2.926,2.412-2.085-2.237A3.123,3.123,0,0,1-1544.257,1254.2Zm3.125,3.125a3.128,3.128,0,0,1-3.125,3.125,3.128,3.128,0,0,1-3.125-3.125,3.107,3.107,0,0,1,.461-1.631l2.163,2.321,3.04-2.506A3.107,3.107,0,0,1-1541.132,1257.328Z" transform="translate(1556.676 -1210.545)" fill="#0e2549"/>
      <path id="Path_12576" data-name="Path 12576" d="M-1338.33,849.244h-23.341a.082.082,0,0,1-.082-.082.082.082,0,0,1,.082-.082h23.341a.082.082,0,0,1,.082.082A.082.082,0,0,1-1338.33,849.244Z" transform="translate(1381.045 -827.993)" fill="#0e2549"/>
      <path id="Path_12577" data-name="Path 12577" d="M-1348.1,918.332h-17.17a.082.082,0,0,1-.082-.082.082.082,0,0,1,.082-.082h17.17a.082.082,0,0,1,.082.082A.082.082,0,0,1-1348.1,918.332Z" transform="translate(1384.449 -893.302)" fill="#0e2549"/>
      <path id="Path_12578" data-name="Path 12578" d="M-1347.077,1066.783h-23.6a.082.082,0,0,1-.082-.082.082.082,0,0,1,.082-.082h23.6a.082.082,0,0,1,.082.082A.082.082,0,0,1-1347.077,1066.783Z" transform="translate(1389.554 -1033.634)" fill="#0e2549"/>
      <path id="Path_12579" data-name="Path 12579" d="M-1363,1135.87h-11.275a.082.082,0,0,1-.082-.082.082.082,0,0,1,.082-.082H-1363a.082.082,0,0,1,.082.082A.082.082,0,0,1-1363,1135.87Z" transform="translate(1392.958 -1098.943)" fill="#0e2549"/>
      <path id="Path_12580" data-name="Path 12580" d="M-1354.4,1284.321h-24.271a.082.082,0,0,1-.082-.082.082.082,0,0,1,.082-.082h24.271a.082.082,0,0,1,.082.082A.082.082,0,0,1-1354.4,1284.321Z" transform="translate(1397.116 -1239.275)" fill="#0e2549"/>
      <path id="Path_12581" data-name="Path 12581" d="M-1363.229,1353.409h-19.044a.082.082,0,0,1-.082-.082.082.082,0,0,1,.082-.082h19.044a.082.082,0,0,1,.082.082A.082.082,0,0,1-1363.229,1353.409Z" transform="translate(1400.52 -1304.584)" fill="#0e2549"/>
      <path id="Path_12582" data-name="Path 12582" d="M-1495.521,1447h-22.742a.082.082,0,0,1-.082-.082.082.082,0,0,1,.082-.082h22.742a.082.082,0,0,1,.082.082A.082.082,0,0,1-1495.521,1447Z" transform="translate(1529.073 -1393.057)" fill="#0e2549"/>
      <path id="Path_12583" data-name="Path 12583" d="M-1499.141,1517.794h-22.742a.082.082,0,0,1-.082-.082.082.082,0,0,1,.082-.082h22.742a.082.082,0,0,1,.082.082A.082.082,0,0,1-1499.141,1517.794Z" transform="translate(1532.495 -1459.979)" fill="#0e2549"/>
      <path id="Path_12584" data-name="Path 12584" d="M-1695.766,469.256c0,8.284-3.856,15-8.613,15s-8.613-6.715-8.613-15c0,0,3.172-1.066,4.181-1.527,1.181-.54,4.578-2.476,4.578-2.476s3.321,1.951,4.43,2.476C-1698.8,468.205-1695.766,469.256-1695.766,469.256Z" transform="translate(1713.074 -465.158)" fill="#d2ebfc"/>
      <path id="Path_12585" data-name="Path 12585" d="M-1705.8,482.7c-2.331,0-4.519-1.575-6.161-4.434a21.738,21.738,0,0,1-2.533-10.647v-.059l.056-.019c.032-.011,3.179-1.07,4.173-1.524,1.164-.532,4.538-2.453,4.572-2.472l.041-.023.041.024c.033.02,3.33,1.956,4.423,2.472.992.469,4,1.514,4.029,1.524l.055.019v.058a21.738,21.738,0,0,1-2.533,10.647C-1701.278,481.124-1703.466,482.7-1705.8,482.7Zm-8.531-15.022c.018,8.2,3.838,14.858,8.531,14.858s8.513-6.66,8.531-14.858c-.417-.145-3.065-1.074-3.99-1.511-1.033-.488-4.01-2.229-4.4-2.455-.391.222-3.444,1.953-4.544,2.456C-1711.123,466.589-1713.9,467.531-1714.328,467.677Z" transform="translate(1714.492 -463.52)" fill="#0e2549"/>
      <path id="Path_12586" data-name="Path 12586" d="M-1670.228,502.42c0,6.775-3.154,12.268-7.045,12.268s-7.045-5.492-7.045-12.268c0,0,2.812-.907,3.7-1.315.909-.417,3.494-1.987,3.494-1.987s2.558,1.644,3.47,2.081C-1672.84,501.588-1670.228,502.42-1670.228,502.42Z" transform="translate(1685.967 -497.171)" fill="#fff"/>
      <path id="Path_12587" data-name="Path 12587" d="M-1678.69,513.1c-1.912,0-3.707-1.291-5.052-3.634a17.794,17.794,0,0,1-2.074-8.715v-.06l.057-.018c.028-.009,2.818-.91,3.693-1.311.895-.411,3.46-1.967,3.486-1.982l.044-.027.043.028c.026.016,2.564,1.647,3.461,2.076.8.382,3.386,1.208,3.413,1.216l.057.018v.06a17.794,17.794,0,0,1-2.074,8.715C-1674.984,511.806-1676.778,513.1-1678.69,513.1Zm-6.963-12.29c.019,6.692,3.135,12.126,6.963,12.126s6.944-5.434,6.962-12.126c-.4-.127-2.626-.847-3.376-1.206-.852-.408-3.086-1.834-3.436-2.058-.345.209-2.621,1.58-3.459,1.965S-1685.239,500.673-1685.653,500.807Z" transform="translate(1687.385 -495.499)" fill="#0e2549"/>
      <path id="Path_12588" data-name="Path 12588" d="M-1630.028,558.452h-3.153V555.3h-2.846v3.153h-3.153V561.3h3.153v3.153h2.846V561.3h3.153Z" transform="translate(1643.299 -550.279)" fill="#0e2549"/>
    </g>
    <g id="Group_2495" data-name="Group 2495" transform="translate(-1679.547 478.237)">
      <path id="Path_12589" data-name="Path 12589" d="M-879.558,1712.073l0,1.718h2.38l.2-1.63Z" transform="translate(890.277 -1658.504)" fill="#fff"/>
      <path id="Path_12590" data-name="Path 12590" d="M-878.523,1712.406h-2.535l0-1.885,2.756.094Zm-2.371-.164h2.226l.179-1.469-2.407-.082Z" transform="translate(891.698 -1657.037)" fill="#0e2549"/>
      <path id="Path_12591" data-name="Path 12591" d="M-776.953,1347.995v3.351l-2.926-.179.423-3.036Z" transform="translate(796.05 -1314.338)" fill="#8daec4"/>
      <path id="Path_12592" data-name="Path 12592" d="M-943.393,1741.587s-3.44,1.092-3.558,1.991h6.168v-1.991Z" transform="translate(953.985 -1686.404)" fill="#e2474b"/>
      <path id="Path_12593" data-name="Path 12593" d="M-704.139,1712.111l.065,1.738h2.38l.113-1.775Z" transform="translate(724.452 -1658.504)" fill="#fff"/>
      <path id="Path_12594" data-name="Path 12594" d="M-703.088,1712.491h-2.536l-.071-1.9,2.73-.04Zm-2.378-.164h2.224l.1-1.61-2.385.035Z" transform="translate(725.923 -1657.064)" fill="#0e2549"/>
      <path id="Path_12595" data-name="Path 12595" d="M-766.843,1742.636s-3.44,1.092-3.558,1.992h6.168v-1.992Z" transform="translate(787.091 -1687.396)" fill="#e2474b"/>
      <path id="Path_12596" data-name="Path 12596" d="M-774.506,1771.518v.517h6.553v-.592Z" transform="translate(790.971 -1714.628)" fill="#0e2549"/>
      <path id="Path_12597" data-name="Path 12597" d="M-943.921,1770.434v.551h-6.553v-.591Z" transform="translate(957.316 -1713.636)" fill="#0e2549"/>
      <path id="Path_12598" data-name="Path 12598" d="M-731.539,1747.029a.079.079,0,0,1-.023,0l-1.189-.356a.082.082,0,0,1-.055-.1.082.082,0,0,1,.1-.055l1.189.356a.082.082,0,0,1,.055.1A.082.082,0,0,1-731.539,1747.029Z" transform="translate(751.556 -1691.057)" fill="#0e2549"/>
      <path id="Path_12599" data-name="Path 12599" d="M-785.588,892.853l-.148-.071c.012-.025,1.181-2.486.567-3.712a1.2,1.2,0,0,0-.89-.641h-2.463c-.014,0-1.871.119-1.9,1.232a11.954,11.954,0,0,0,.218,2.282l-.161.033a12.153,12.153,0,0,1-.222-2.319c.029-1.264,1.973-1.388,2.056-1.393h2.492a1.357,1.357,0,0,1,1.012.73C-784.373,890.295-785.538,892.75-785.588,892.853Z" transform="translate(806.17 -879.753)" fill="#e2474b"/>
      <path id="Path_12600" data-name="Path 12600" d="M-742.41,1753.535a.087.087,0,0,1-.023,0l-1.189-.356a.082.082,0,0,1-.055-.1.082.082,0,0,1,.1-.055l1.189.356a.082.082,0,0,1,.055.1A.083.083,0,0,1-742.41,1753.535Z" transform="translate(761.832 -1697.207)" fill="#0e2549"/>
      <path id="Path_12601" data-name="Path 12601" d="M-757.476,1760.041a.086.086,0,0,1-.023,0l-1.189-.356a.082.082,0,0,1-.055-.1.082.082,0,0,1,.1-.055l1.189.356a.082.082,0,0,1,.055.1A.082.082,0,0,1-757.476,1760.041Z" transform="translate(776.074 -1703.357)" fill="#0e2549"/>
      <path id="Path_12602" data-name="Path 12602" d="M-905,1743.764a.087.087,0,0,1-.023,0l-1.189-.356a.082.082,0,0,1-.055-.1.082.082,0,0,1,.1-.055l1.189.356a.082.082,0,0,1,.055.1A.082.082,0,0,1-905,1743.764Z" transform="translate(915.527 -1687.971)" fill="#0e2549"/>
      <path id="Path_12603" data-name="Path 12603" d="M-915.869,1750.271a.083.083,0,0,1-.023,0l-1.189-.356a.082.082,0,0,1-.055-.1.082.082,0,0,1,.1-.055l1.189.356a.082.082,0,0,1,.055.1A.082.082,0,0,1-915.869,1750.271Z" transform="translate(925.805 -1694.122)" fill="#0e2549"/>
      <path id="Path_12604" data-name="Path 12604" d="M-930.934,1756.778a.087.087,0,0,1-.024,0l-1.189-.356a.082.082,0,0,1-.055-.1.082.082,0,0,1,.1-.055l1.189.356a.082.082,0,0,1,.055.1A.082.082,0,0,1-930.934,1756.778Z" transform="translate(940.045 -1700.273)" fill="#0e2549"/>
      <path id="Path_12605" data-name="Path 12605" d="M-877.051,1163.394l-.1,8.938-.056,5.326-.171,16.1h-3.788l-1.694-16.419-.255-2.47-.491,2.431-3.321,16.459h-3.646l1.5-16.459h0l.693-7.6.4-4.42,5.117-.884,1.981-.342Z" transform="translate(900.686 -1139.834)" fill="#0e2549"/>
      <path id="Path_12606" data-name="Path 12606" d="M-787.433,858.019a14.158,14.158,0,0,1,.043,3.125,6.51,6.51,0,0,1-1.525.885l2.179,6.406,4.652-.45.3-4.763a17.991,17.991,0,0,1-2.252-2.085,21.54,21.54,0,0,1-.178-3.118Z" transform="translate(804.592 -851.16)" fill="#fff"/>
      <path id="Path_12607" data-name="Path 12607" d="M-788.554,867.1l-2.224-6.538.069-.03a6.067,6.067,0,0,0,1.491-.858,12.712,12.712,0,0,0-.058-3.069.082.082,0,0,1,.074-.089.082.082,0,0,1,.089.074,12.285,12.285,0,0,1,.028,3.181,5.661,5.661,0,0,1-1.489.881l2.134,6.273,4.518-.437.295-4.651a15.826,15.826,0,0,1-2.244-2.094,20.929,20.929,0,0,1-.183-3.146.082.082,0,0,1,.082-.082.082.082,0,0,1,.082.082,21.752,21.752,0,0,0,.173,3.09,15.676,15.676,0,0,0,2.226,2.049l.033.027-.309,4.874Z" transform="translate(806.353 -849.741)" fill="#0e2549"/>
      <path id="Path_12608" data-name="Path 12608" d="M-1069.764,948.882a39.023,39.023,0,0,1,3.537,3.39l-2.028.968a19.771,19.771,0,0,0-1.936-3.112,9.033,9.033,0,0,1-2.735-.382c-.807-.541-1.225-1.23-1.129-1.445.052-.116,1.452.724,1.759.732C-1071.427,949.056-1070.271,948.6-1069.764,948.882Z" transform="translate(1074.149 -936.495)" fill="#fff"/>
      <path id="Path_12609" data-name="Path 12609" d="M-1069.7,951.932l-.037-.069a18.087,18.087,0,0,0-1.879-3.07c-.142-.019-.376-.03-.646-.042a5.367,5.367,0,0,1-2.119-.352c-.815-.546-1.283-1.266-1.158-1.546a.1.1,0,0,1,.057-.052c.087-.031.246.038.831.328a4.669,4.669,0,0,0,.948.407,5.94,5.94,0,0,0,1.12-.128,2.477,2.477,0,0,1,1.449-.013h0a38.046,38.046,0,0,1,3.556,3.4l.077.082Zm-5.7-4.966a2.435,2.435,0,0,0,1.107,1.3,5.357,5.357,0,0,0,2.035.324c.274.013.511.024.665.045.072.01.222.03,1.137,1.611.366.632.712,1.268.823,1.475l1.855-.886a36.255,36.255,0,0,0-3.44-3.293,2.425,2.425,0,0,0-1.339.032,6.06,6.06,0,0,1-1.153.13,3.9,3.9,0,0,1-1.017-.424A6.911,6.911,0,0,0-1075.393,946.965Z" transform="translate(1075.556 -935.079)" fill="#0e2549"/>
      <path id="Path_12610" data-name="Path 12610" d="M-833.623,912.493c-1.406.513-1.067,8.023-1.067,8.023-.229.883-.77,5.611-.77,5.611l9.856,1.964,1.162-5.9s.728-9.936-3.134-10.518a13.966,13.966,0,0,1-2.713.357c-.525-.051-.792.576-1.053-.344C-831.343,911.685-833.317,912.381-833.623,912.493Z" transform="translate(848.591 -901.875)" fill="#e2474b"/>
      <path id="Path_12611" data-name="Path 12611" d="M-851.026,1175.582l-.129,4.993-.079,0-5.653-.322-.255-2.47-.491,2.43H-863.1l.693-7.6,2.029-3.65,3.492-1.654,1.76-.834.221.491,3.726,8.279Z" transform="translate(874.718 -1142.745)" fill="#091a33"/>
      <path id="Path_12612" data-name="Path 12612" d="M-978.836,924.637l-.936-9.643c-.645,0-3.4,1.734-3.4,1.734a53.844,53.844,0,0,0-2.987,5.693c-.073.181-3.405-3.475-3.386-3.259,0,0-1.966.6-1.952.942s3.053,6.193,5.293,7.251c.415.2,2.778-1.314,2.9-3.561l-.3,5.539-1.012,12.288,4.942.008.719-11.449Z" transform="translate(996.093 -905.019)" fill="#a1c5e2"/>
      <path id="Path_12613" data-name="Path 12613" d="M-759.191,908.332l-3.586,10.213c-.009.814-.19,4.083,0,7.542.257,4.7.906,9.745.907,9.464,0-.114,6.03.266,6.03.266l.29-9.641s2.285-1.581,2.285-6.057c0-5.015-.274-6.719-.941-9.236C-754.3,910.52-757.878,908.332-759.191,908.332Z" transform="translate(779.965 -898.721)" fill="#a1c5e2"/>
      <path id="Path_12614" data-name="Path 12614" d="M-771.909,758.415c-.586-.013-2.008-.062-2.141.972a26.951,26.951,0,0,0-.131,3.534.647.647,0,0,0,.564.629l3.56.457a.647.647,0,0,0,.711-.488,22.545,22.545,0,0,0,.721-3.725C-768.913,758.55-770.982,758.435-771.909,758.415Z" transform="translate(790.67 -756.999)" fill="#0e2549"/>
      <path id="Path_12615" data-name="Path 12615" d="M-769.083,776.9a4.227,4.227,0,0,0,.534-1.854.076.076,0,0,1,.044-.058,1.058,1.058,0,0,0,.675-.812c.041-.388-.249-.343-.485-.247a.06.06,0,0,1-.081-.065c.122-1.089.185-2.05.185-2.05l-4.23-.543s-.116.97-.215,2.062c0,.049-.159,2.664-.088,2.912a.729.729,0,0,0,.263.359s.243.257,1.78.454Z" transform="translate(789.323 -769.161)" fill="#fff"/>
      <path id="Path_12616" data-name="Path 12616" d="M-772.1,775.557h-.01c-1.452-.186-1.774-.427-1.824-.474a.806.806,0,0,1-.287-.4c-.078-.269.083-2.917.085-2.942.1-1.081.214-2.055.215-2.065l.01-.082,4.388.563-.005.077c0,.01-.063.954-.181,2.019a.476.476,0,0,1,.456,0,.361.361,0,0,1,.106.349,1.142,1.142,0,0,1-.721.877,3.882,3.882,0,0,1-.563,1.9.082.082,0,0,1-.115-.013.082.082,0,0,1,.013-.115c.1-.078.292-.416.5-1.8a.157.157,0,0,1,.093-.121.985.985,0,0,0,.627-.745c.008-.072.006-.164-.042-.2s-.173-.026-.331.039a.139.139,0,0,1-.137-.018.143.143,0,0,1-.056-.132c.1-.9.161-1.72.179-1.969l-4.071-.522c-.03.257-.124,1.08-.2,1.978-.009.1-.155,2.657-.091,2.882a.649.649,0,0,0,.235.318l.008.008a3.988,3.988,0,0,0,1.731.429.082.082,0,0,1,.071.092A.082.082,0,0,1-772.1,775.557Z" transform="translate(790.727 -767.573)" fill="#0e2549"/>
      <path id="Path_12617" data-name="Path 12617" d="M-726.135,816.859h-.011a.137.137,0,0,1-.126-.147l.007-.088a.137.137,0,0,1,.147-.126.137.137,0,0,1,.126.147l-.007.088A.137.137,0,0,1-726.135,816.859Z" transform="translate(745.375 -811.909)" fill="#0e2549"/>
      <path id="Path_12618" data-name="Path 12618" d="M-760.113,813.289h-.016a.137.137,0,0,1-.12-.152l.012-.1a.137.137,0,0,1,.152-.12.137.137,0,0,1,.12.152l-.012.1A.137.137,0,0,1-760.113,813.289Z" transform="translate(777.495 -808.52)" fill="#0e2549"/>
      <path id="Path_12619" data-name="Path 12619" d="M-728.312,806.257a.081.081,0,0,1-.04-.01.949.949,0,0,0-.67-.077.082.082,0,0,1-.1-.054.082.082,0,0,1,.054-.1,1.1,1.1,0,0,1,.8.09.082.082,0,0,1,.032.112A.082.082,0,0,1-728.312,806.257Z" transform="translate(748.075 -801.963)" fill="#0e2549"/>
      <path id="Path_12620" data-name="Path 12620" d="M-762.048,805.142a.079.079,0,0,1-.027,0c-.062-.022-.369-.139-.379-.327-.008-.139.011-.173.239-.591l.18-.33a1.18,1.18,0,0,0,.105-.432c0-.006-.015-.035-.079-.073a1.129,1.129,0,0,0-.864-.079.082.082,0,0,1-.108-.042.082.082,0,0,1,.043-.108,1.292,1.292,0,0,1,1.016.09.273.273,0,0,1,.156.2,1.361,1.361,0,0,1-.12.513l0,.006-.181.334c-.218.4-.224.413-.219.5,0,.049.147.138.27.181a.082.082,0,0,1,.05.1A.082.082,0,0,1-762.048,805.142Z" transform="translate(780.084 -799.232)" fill="#0e2549"/>
      <path id="Path_12621" data-name="Path 12621" d="M-716,1206.424a.081.081,0,0,1-.049-.017l-2.721-2.067a.082.082,0,0,1-.016-.115.082.082,0,0,1,.115-.016l2.721,2.067a.082.082,0,0,1,.016.115A.082.082,0,0,1-716,1206.424Z" transform="translate(738.317 -1178.401)" fill="#0e2549"/>
      <path id="Path_12622" data-name="Path 12622" d="M-844.093,1207.578a.082.082,0,0,1-.073-.045.082.082,0,0,1,.036-.11l2.927-1.486a.082.082,0,0,1,.11.036.082.082,0,0,1-.036.11l-2.927,1.486A.081.081,0,0,1-844.093,1207.578Z" transform="translate(856.83 -1180.041)" fill="#0e2549"/>
      <path id="Path_12623" data-name="Path 12623" d="M-809.664,909.761l-1.966,2.172,1.593.64-.916,2.4,2.106,4.423a.016.016,0,0,0,.031-.009Z" transform="translate(826.065 -900.072)" fill="#fff"/>
      <path id="Path_12624" data-name="Path 12624" d="M-811.249,916.133a.1.1,0,0,1-.089-.056l-2.121-4.454.9-2.362-1.628-.654,2.171-2.4.865,9.817a.1.1,0,0,1-.072.1A.1.1,0,0,1-811.249,916.133Zm-.065-.093h0Zm-1.966-4.425,1.934,4.061-.8-9.079-1.761,1.945,1.559.626Z" transform="translate(828.482 -896.714)" fill="#0e2549"/>
      <path id="Path_12625" data-name="Path 12625" d="M-755.448,908.332l1.9,2.88-2.143.186.481,2.55L-758.847,918a.033.033,0,0,1-.055-.034Z" transform="translate(776.222 -898.721)" fill="#fff"/>
      <path id="Path_12626" data-name="Path 12626" d="M-760.29,914.946a.115.115,0,0,1-.06-.017.113.113,0,0,1-.047-.139l3.508-9.787,2.066,3.132-2.19.19.472,2.5-3.664,4.082A.114.114,0,0,1-760.29,914.946Zm.047-.1v0Zm3.4-9.479-3.314,9.244,3.442-3.834-.491-2.6,2.1-.182Z" transform="translate(777.641 -895.573)" fill="#0e2549"/>
      <path id="Path_12627" data-name="Path 12627" d="M-757.028,1102.283h0l-5.836-.268-.021-.046c-.511-1.149-.954-10.515-.972-10.913l.119-6.632a.083.083,0,0,1,.083-.081.082.082,0,0,1,.081.083l-.12,6.627c0,.091.448,9.487.939,10.8l5.733.264a.082.082,0,0,1,.078.086A.082.082,0,0,1-757.028,1102.283Z" transform="translate(780.907 -1065.106)" fill="#0e2549"/>
      <path id="Path_12628" data-name="Path 12628" d="M-750.022,1154.06a.241.241,0,0,0,.241.241.241.241,0,0,0,.241-.241.241.241,0,0,0-.241-.241A.241.241,0,0,0-750.022,1154.06Z" transform="translate(767.826 -1130.782)" fill="#fff"/>
      <path id="Path_12629" data-name="Path 12629" d="M-751.2,1152.966a.324.324,0,0,1-.323-.323.324.324,0,0,1,.323-.323.324.324,0,0,1,.323.323A.324.324,0,0,1-751.2,1152.966Zm0-.483a.159.159,0,0,0-.159.159.159.159,0,0,0,.159.159.159.159,0,0,0,.159-.159A.159.159,0,0,0-751.2,1152.483Z" transform="translate(769.244 -1129.364)" fill="#0e2549"/>
      <path id="Path_12630" data-name="Path 12630" d="M-862.539,1058.764h-4.816l.007-.088,1.478-19.772a.083.083,0,0,1,.088-.076.082.082,0,0,1,.076.088l-1.472,19.684h4.639a.082.082,0,0,1,.082.082A.082.082,0,0,1-862.539,1058.764Z" transform="translate(878.742 -1022.08)" fill="#0e2549"/>
      <path id="Path_12631" data-name="Path 12631" d="M-737.411,901.6l-1.142-.89-2.362.96.758.9Z" transform="translate(759.218 -891.512)" fill="#e2474b"/>
      <path id="Path_12632" data-name="Path 12632" d="M-742.522,901.044l-.866-1.034,2.511-1.021,1.3,1.011Zm-.6-.967.649.774,2.552-.905-.987-.769Z" transform="translate(761.555 -889.89)" fill="#0e2549"/>
      <path id="Path_12633" data-name="Path 12633" d="M-788.619,904.249l.8-.844,1.812.813-.683.833Z" transform="translate(804.313 -894.064)" fill="#e2474b"/>
      <path id="Path_12634" data-name="Path 12634" d="M-789.108,903.444l-2.092-.871.918-.973,1.963.88Zm-1.809-.931,1.76.733.577-.7-1.661-.745Z" transform="translate(806.752 -892.357)" fill="#0e2549"/>
      <path id="Path_12635" data-name="Path 12635" d="M-762.706,919.168l-.758-.9-.753.9.329.388-.881,4.82.323,2.98,1.221-3.406-.031-4.32Z" transform="translate(781.765 -908.111)" fill="#0e2549"/>
      <rect id="Rectangle_149" data-name="Rectangle 149" width="4.141" height="1.176" transform="translate(9.799 52.937)" fill="#0e2549"/>
      <rect id="Rectangle_150" data-name="Rectangle 150" width="4.141" height="1.176" transform="translate(19.422 52.747)" fill="#0e2549"/>
      <path id="Path_12636" data-name="Path 12636" d="M-823.856,1486.118l-.016,0a.082.082,0,0,1-.064-.1l1.841-9.125c-.39.092-1.476.32-1.836.089a.276.276,0,0,1-.13-.185.246.246,0,0,1,.051-.194c.2-.268,1-.407,1.392-.46-.34-.263-.49-.452-.446-.563s.2-.089.252-.082a1.971,1.971,0,0,1,.912.412l.45-2.219a.082.082,0,0,1,.1-.064.082.082,0,0,1,.064.1l-.507,2.5-.108-.1a1.913,1.913,0,0,0-.929-.461c-.027,0-.048,0-.061,0a2.642,2.642,0,0,0,.538.477l.176.126-.215.022c-.352.036-1.3.183-1.484.421a.081.081,0,0,0-.02.066.11.11,0,0,0,.057.076,3.931,3.931,0,0,0,1.833-.141l.127-.033-1.893,9.38A.082.082,0,0,1-823.856,1486.118Z" transform="translate(837.819 -1433.099)" fill="#a1c5e2"/>
      <path id="Path_12637" data-name="Path 12637" d="M-682.694,1477.082h0a.082.082,0,0,1-.082-.082l.044-9.309c-.364.166-1.386.6-1.784.442a.276.276,0,0,1-.163-.156.245.245,0,0,1,.012-.2c.146-.3.9-.593,1.277-.721-.384-.192-.568-.349-.546-.466s.179-.125.231-.129a1.967,1.967,0,0,1,.974.228l.013-2.264a.082.082,0,0,1,.083-.082.082.082,0,0,1,.082.083l-.015,2.551-.125-.08a1.909,1.909,0,0,0-1-.273.485.485,0,0,0-.061.007,2.641,2.641,0,0,0,.62.364l.2.09-.207.063c-.338.1-1.244.431-1.374.7a.081.081,0,0,0-.007.069.11.11,0,0,0,.07.063c.334.132,1.392-.31,1.771-.492l.118-.057-.045,9.569A.082.082,0,0,1-682.694,1477.082Z" transform="translate(706.072 -1424.323)" fill="#a1c5e2"/>
      <path id="Path_12638" data-name="Path 12638" d="M-791.1,735.577s-4.253.332-5.644-.782c-.794-.636.19-2.091.918-2.183.548-.069,1.121.755,1.7.821.443.051,1.486.264,2.058.38C-790.912,734.047-790.5,735.057-791.1,735.577Z" transform="translate(812.272 -732.608)" fill="#0e2549"/>
      <path id="Path_12639" data-name="Path 12639" d="M-719.391,1199.326l-5.121,2.267,1.745,3.565,5.036-2.283Z" transform="translate(743.711 -1173.8)" fill="#fff"/>
      <path id="Path_12640" data-name="Path 12640" d="M-724.726,1203.407l-1.817-3.714,5.273-2.334,1.729,3.7Zm-1.595-3.633,1.672,3.417,4.888-2.216-1.59-3.4Z" transform="translate(745.631 -1171.941)" fill="#0e2549"/>
      <path id="Path_12641" data-name="Path 12641" d="M-680.517,1111.008a8.588,8.588,0,0,1-1.164,3,12.586,12.586,0,0,0-1.041,1.755c-.048.177.843-.258.884-.268l.055.334s.177.171.333.1c.134-.057.2-.268.329-.3a1.78,1.78,0,0,0,.345.016c.109-.027.193-.247.272-.314.059-.049.269.037.364-.025.151-.1.093-.309.2-.382s.251.075.419-.052-.523-1.106-.51-1.328c.046-.78,3.2-5.125,1.638-8.112C-679.1,1104.094-680.186,1108.134-680.517,1111.008Z" transform="translate(704.209 -1084.792)" fill="#fff"/>
      <path id="Path_12642" data-name="Path 12642" d="M-682.944,1114.605a.52.52,0,0,1-.313-.142l-.02-.019-.042-.257h0c-.642.288-.791.308-.865.245a.11.11,0,0,1-.032-.116,12.624,12.624,0,0,1,1.053-1.781,8.5,8.5,0,0,0,1.15-2.959l.082.009-.082-.009c.268-2.324,1.079-5.766,1.845-5.908.164-.031.309.071.43.3,1.19,2.275-.326,5.353-1.141,7.007a5.164,5.164,0,0,0-.488,1.148,2.313,2.313,0,0,0,.238.535c.249.473.382.746.24.854a.387.387,0,0,1-.331.058c-.04-.007-.077-.014-.091,0s-.033.062-.044.112a.4.4,0,0,1-.156.271.4.4,0,0,1-.263.029.527.527,0,0,0-.1-.005.7.7,0,0,0-.074.1c-.06.093-.128.2-.226.223a1.113,1.113,0,0,1-.321-.009l-.033,0a.384.384,0,0,0-.114.115.523.523,0,0,1-.194.177A.274.274,0,0,1-682.944,1114.605Zm-.18-.244c.042.034.145.105.225.071a.407.407,0,0,0,.128-.127.418.418,0,0,1,.214-.177.218.218,0,0,1,.082,0,1.252,1.252,0,0,0,.262.013c.035-.009.093-.1.128-.152a.653.653,0,0,1,.112-.145.283.283,0,0,1,.216-.028.351.351,0,0,0,.155,0,.251.251,0,0,0,.086-.171.319.319,0,0,1,.111-.21.268.268,0,0,1,.213-.023.233.233,0,0,0,.2-.023,2.356,2.356,0,0,0-.279-.652,1.726,1.726,0,0,1-.257-.62,4.868,4.868,0,0,1,.5-1.211c.8-1.627,2.294-4.657,1.143-6.858-.084-.161-.169-.234-.255-.218-.266.049-.629.794-.972,1.993a24.985,24.985,0,0,0-.74,3.772,8.719,8.719,0,0,1-1.179,3.035,14.876,14.876,0,0,0-1,1.661,4.223,4.223,0,0,0,.648-.254.977.977,0,0,1,.112-.047l.087-.022Z" transform="translate(705.625 -1083.37)" fill="#0e2549"/>
      <path id="Path_12643" data-name="Path 12643" d="M-668.994,1016.251a7.034,7.034,0,0,0,2.8-4.869c.4-3.318-1.042-8.865-1.042-8.865l-2.9,2.851a33.717,33.717,0,0,1,.437,5.531c-.219,1.03-1.774,5.352-1.774,5.352Z" transform="translate(693.569 -987.755)" fill="#a1c5e2"/>
      <path id="Path_12644" data-name="Path 12644" d="M-670.836,1054.743h-2.582l.027-.1a22.423,22.423,0,0,1,.913-2.618,10.6,10.6,0,0,0,.9-3.082,13.934,13.934,0,0,0-.808-5.677.082.082,0,0,1,.045-.107.082.082,0,0,1,.107.045,14.119,14.119,0,0,1,.82,5.752,10.889,10.889,0,0,1-.909,3.13,22.907,22.907,0,0,0-.879,2.5h2.368a.082.082,0,0,1,.082.082A.082.082,0,0,1-670.836,1054.743Z" transform="translate(695.412 -1026.165)" fill="#0e2549"/>
      <path id="Path_12645" data-name="Path 12645" d="M-709.94,1042.267v1.642l2.526.005v-1.647Z" transform="translate(729.936 -1025.331)" fill="#fff"/>
      <path id="Path_12646" data-name="Path 12646" d="M-708.75,1042.579l-2.69-.005v-1.806h2.69Zm-2.526-.169,2.362,0v-1.483h-2.362Z" transform="translate(731.354 -1023.913)" fill="#0e2549"/>
      <path id="Path_12647" data-name="Path 12647" d="M-694.845,1035.361h-1.032a.4.4,0,0,1,.4-.4h.232a.4.4,0,0,1,.4.4Z" transform="translate(716.643 -1018.425)" fill="#fff"/>
      <path id="Path_12648" data-name="Path 12648" d="M-696.181,1034.025h-1.2v-.082a.482.482,0,0,1,.482-.482h.232a.482.482,0,0,1,.482.482Zm-1.021-.164h.846a.318.318,0,0,0-.307-.235h-.232A.318.318,0,0,0-697.2,1033.861Z" transform="translate(718.06 -1017.007)" fill="#0e2549"/>
      <path id="Path_12649" data-name="Path 12649" d="M-700.6,1050.264h-1.586a.082.082,0,0,1-.082-.082.082.082,0,0,1,.082-.082h1.586a.082.082,0,0,1,.082.082A.082.082,0,0,1-700.6,1050.264Z" transform="translate(722.683 -1032.736)" fill="#0e2549"/>
      <path id="Path_12650" data-name="Path 12650" d="M-696.79,1058.264h-1.062a.082.082,0,0,1-.082-.082.082.082,0,0,1,.082-.082h1.062a.082.082,0,0,1,.082.082A.082.082,0,0,1-696.79,1058.264Z" transform="translate(718.587 -1040.298)" fill="#0e2549"/>
      <path id="Path_12651" data-name="Path 12651" d="M-710.4,972.1a.6.6,0,0,1-.6.6.6.6,0,0,1-.6-.6.6.6,0,0,1,.6-.6A.6.6,0,0,1-710.4,972.1Z" transform="translate(731.512 -958.428)" fill="#ebf4fe"/>
      <path id="Path_12652" data-name="Path 12652" d="M-712.422,971.362a.685.685,0,0,1-.685-.685.685.685,0,0,1,.685-.685.685.685,0,0,1,.685.685A.685.685,0,0,1-712.422,971.362Zm0-1.205a.521.521,0,0,0-.521.521.521.521,0,0,0,.521.521.521.521,0,0,0,.521-.521A.521.521,0,0,0-712.422,970.157Z" transform="translate(732.93 -957.01)" fill="#e2474b"/>
      <path id="Path_12653" data-name="Path 12653" d="M-814.382,958.24l-.158-.043c.087-.32.056-2.682-.584-3.473a.571.571,0,0,0-.487-.25.587.587,0,0,0-.42.217c-.649.733-.5,2.988-.5,3.011l-.164.011c-.007-.1-.151-2.346.543-3.131a.753.753,0,0,1,.534-.272.733.733,0,0,1,.623.31C-814.312,955.467-814.289,957.9-814.382,958.24Z" transform="translate(830.871 -942.184)" fill="#e2474b"/>
      <path id="Path_12654" data-name="Path 12654" d="M-779.217,1023.53a.184.184,0,0,1-.184-.184.184.184,0,0,1,.184-.184.184.184,0,0,1,.184.184A.184.184,0,0,1-779.217,1023.53Zm0-.2a.02.02,0,0,0-.02.02.02.02,0,0,0,.02.02.02.02,0,0,0,.02-.02A.02.02,0,0,0-779.217,1023.326Z" transform="translate(795.598 -1007.271)" fill="#e2474b"/>
      <path id="Path_12655" data-name="Path 12655" d="M-818.378,1014.916a.184.184,0,0,1-.184-.184.184.184,0,0,1,.184-.184.184.184,0,0,1,.184.184A.184.184,0,0,1-818.378,1014.916Zm0-.2a.02.02,0,0,0-.02.02.02.02,0,0,0,.02.02.02.02,0,0,0,.02-.02A.02.02,0,0,0-818.378,1014.712Z" transform="translate(832.618 -999.128)" fill="#e2474b"/>
      <path id="Path_12656" data-name="Path 12656" d="M-797.894,893.337l-.156-.051a9.353,9.353,0,0,0,.41-2.277c.011-.484.284-1.105,1.521-1.315l.027.162c-.9.153-1.37.542-1.384,1.157A9.532,9.532,0,0,1-797.894,893.337Z" transform="translate(813.227 -881.104)" fill="#e2474b"/>
      <path id="Path_12657" data-name="Path 12657" d="M-701.791,896.486l-.148-.071c.016-.033,1.557-3.284.158-4.167l.088-.139C-700.172,893.07-701.724,896.347-701.791,896.486Z" transform="translate(722.373 -883.386)" fill="#e2474b"/>
      <path id="Path_12658" data-name="Path 12658" d="M-776.636,827.531s-.432,1.788.079,2.249a5.481,5.481,0,0,0,3.077.54c.391-.174,1.079-2.194,1.079-2.194a5.218,5.218,0,0,1-1.349.325,5.272,5.272,0,0,1-2.219-.323A3,3,0,0,1-776.636,827.531Z" transform="translate(793.145 -822.34)" fill="#0e2549"/>
      <path id="Path_12659" data-name="Path 12659" d="M-757.617,845.492c.029.13-.354.52-.682.461-.536-.1-.58-.669-.457-.615a1.1,1.1,0,0,0,.531.258C-757.877,845.648-757.636,845.4-757.617,845.492Z" transform="translate(776.136 -839.17)" fill="#fff"/>
    </g>
  </g>
</svg>
