<svg xmlns="http://www.w3.org/2000/svg" width="81" height="81" viewBox="0 0 81 81">
  <g id="pic" transform="translate(-64.085 -550)">
    <circle id="bg" cx="40.5" cy="40.5" r="40.5" transform="translate(64.085 550)" fill="#e2ebf9"/>
    <g id="icn" transform="translate(49.864 573)">
      <g id="Group_2483" data-name="Group 2483" transform="translate(41.314 15.651)">
        <path id="Path_12491" data-name="Path 12491" d="M141.306,141.342v-3.178h-1.939a1.669,1.669,0,0,0-1.669,1.669v1.291a1.669,1.669,0,0,0,1.669,1.669h1.939Z" transform="translate(-137.699 -138.164)" fill="#e2ebf9"/>
        <path id="Path_12492" data-name="Path 12492" d="M344.49,138.164h-1.939v4.629h1.939a1.669,1.669,0,0,0,1.669-1.669v-1.291A1.669,1.669,0,0,0,344.49,138.164Z" transform="translate(-319.345 -138.164)" fill="#e2ebf9"/>
        <path id="Path_12493" data-name="Path 12493" d="M182.491,247.851l5.98-5.617-2.374-.441a2.831,2.831,0,0,1-1.971-2.728v-5.209H173.021v5.209a2.83,2.83,0,0,1-1.97,2.728l-2.374.441,5.98,5.617A5.722,5.722,0,0,0,182.491,247.851Z" transform="translate(-165.167 -223.015)" fill="#e2ebf9"/>
      </g>
      <path id="Path_12494" data-name="Path 12494" d="M281.324,233.855v7.9a2.83,2.83,0,0,0,1.97,2.728l2.047.586,3.017-2.834-2.375-.441a2.831,2.831,0,0,1-1.971-2.728v-5.209Z" transform="translate(-223.74 -207.364)" fill="#c1c8d2"/>
      <path id="Path_12495" data-name="Path 12495" d="M68.3,299.128l-6.932,5.181-6.932-5.181a1.461,1.461,0,0,0-1.3-.229l-11.646,3.514a3.452,3.452,0,0,0-2.405,2.723l-2.566,15.021a1.692,1.692,0,0,0,1.668,1.978H84.546a1.692,1.692,0,0,0,1.668-1.978l-2.566-15.021a3.452,3.452,0,0,0-2.4-2.723L69.6,298.9A1.461,1.461,0,0,0,68.3,299.128Z" transform="translate(-6.648 -264.984)" fill="#76ffda"/>
      <path id="Path_12496" data-name="Path 12496" d="M167.719,298.9l-2,.6,4.421,6.188a1.278,1.278,0,0,0,1.539.433l4.272-1.815-6.932-5.181A1.46,1.46,0,0,0,167.719,298.9Z" transform="translate(-121.227 -264.984)" fill="#5de1c0"/>
      <path id="Path_12497" data-name="Path 12497" d="M260.32,306.124a1.277,1.277,0,0,0,1.539-.433l4.421-6.188-.011,0-1.993-.6a1.461,1.461,0,0,0-1.3.229l-6.932,5.181Z" transform="translate(-201.326 -264.984)" fill="#5de1c0"/>
      <path id="Path_12498" data-name="Path 12498" d="M229.747,347.145l-3.36,1.427,1.964,2.283h2.791l1.964-2.283Z" transform="translate(-175.026 -307.82)" fill="#ff914d"/>
      <path id="Path_12499" data-name="Path 12499" d="M226.338,379.9h-2.791l-2.578,14.115h7.947Z" transform="translate(-170.222 -336.863)" fill="#ff914d"/>
      <path id="Path_12500" data-name="Path 12500" d="M181.664,31.815c-1.672-1.439-4.021-1.346-7.126-1.381-3.1.034-5.454-.059-7.126,1.381a9.708,9.708,0,0,0-3.287,7.376V47.37c0,2.814,3.537,10.277,10.413,10.277s10.413-7.463,10.413-10.277V39.191A9.708,9.708,0,0,0,181.664,31.815Z" transform="translate(-119.817 -26.986)" fill="#fff"/>
      <path id="Path_12501" data-name="Path 12501" d="M241.233,34.062a5.1,5.1,0,0,0-2.318-1.093s0,.008,0,.012V49.618c0,2.4-2.578,8.192-7.611,9.835a8.989,8.989,0,0,0,2.8.442c6.876,0,10.413-7.463,10.413-10.277V41.438A9.708,9.708,0,0,0,241.233,34.062Z" transform="translate(-179.387 -29.234)" fill="#e2ebf9"/>
      <path id="Path_12502" data-name="Path 12502" d="M61.369,320s-7.785-20.749-8.229-20.615L41.493,302.9a3.452,3.452,0,0,0-2.405,2.723L36.522,320.64a1.692,1.692,0,0,0,1.668,1.978H84.546a1.692,1.692,0,0,0,1.668-1.978l-2.566-15.021a3.452,3.452,0,0,0-2.4-2.723L69.6,299.382C69.154,299.248,61.369,320,61.369,320Z" transform="translate(-6.648 -265.467)" fill="#fff"/>
      <path id="Path_12503" data-name="Path 12503" d="M332.115,320.64l-2.566-15.021a3.451,3.451,0,0,0-2.4-2.723L315.5,299.382a19.6,19.6,0,0,0-1.686,3.684l8.447,2.548A1.759,1.759,0,0,1,323.484,307l2.667,15.616h4.295A1.692,1.692,0,0,0,332.115,320.64Z" transform="translate(-252.547 -265.467)" fill="#e2ebf9"/>
      <path id="Path_12504" data-name="Path 12504" d="M167.585,7.5H155.056a5.837,5.837,0,0,0-5.837,5.837V22.92a4.031,4.031,0,0,1,2.64.986.342.342,0,0,0,.581-.245V15.819a2.58,2.58,0,0,1,2.58-2.58h2.344a2.667,2.667,0,0,1,1.687.6l.23.188a3.223,3.223,0,0,0,4.079,0l.23-.188a2.665,2.665,0,0,1,1.687-.6h2.344a2.58,2.58,0,0,1,2.58,2.58V23.66a.342.342,0,0,0,.581.245,4.031,4.031,0,0,1,2.64-.986V13.337A5.837,5.837,0,0,0,167.585,7.5Z" transform="translate(-106.6 -6.65)" fill="#ffaa16"/>
      <path id="Path_12505" data-name="Path 12505" d="M267.469,7.5h-5.606a5.836,5.836,0,0,1,5.835,5.747,2.58,2.58,0,0,1,2.387,2.572V23.66a.342.342,0,0,0,.581.245,4.031,4.031,0,0,1,2.64-.986V13.337A5.837,5.837,0,0,0,267.469,7.5Z" transform="translate(-206.483 -6.65)" fill="#ff914d"/>
      <path id="Path_12506" data-name="Path 12506" d="M341.04,370.619a3.545,3.545,0,1,1-3.545-3.545A3.546,3.546,0,0,1,341.04,370.619Z" transform="translate(-270.403 -325.491)" fill="#ff8125"/>
      <path id="Path_12507" data-name="Path 12507" d="M354.581,386.148a1.562,1.562,0,1,1-1.562-1.562A1.562,1.562,0,0,1,354.581,386.148Z" transform="translate(-285.928 -341.02)" fill="#ffaa16"/>
      <path id="Path_12508" data-name="Path 12508" d="M80.4,55.03,77.839,40.009a4.276,4.276,0,0,0-3-3.393l-6.92-2.088a7.72,7.72,0,0,0-5.356-6.7c.219-.243.422-.485.608-.722a13.433,13.433,0,0,0,2.751-5.973h.534a2.522,2.522,0,0,0,2.519-2.519V17.32a2.536,2.536,0,0,0-1.305-2.2v-3.1a.85.85,0,1,0-1.7,0V15.5a5.243,5.243,0,0,0-1.129.326.87.87,0,0,0-.119.054c-.091.042-.182.085-.273.134V9.169a3.434,3.434,0,0,0-3.43-3.43H58.677a3.523,3.523,0,0,0-2.225.794l-.23.188a2.372,2.372,0,0,1-3,0l-.23-.188a3.524,3.524,0,0,0-2.225-.794H48.42a3.434,3.434,0,0,0-3.429,3.43v6.844c-.091-.049-.182-.093-.273-.134a.781.781,0,0,0-.119-.053,5.217,5.217,0,0,0-1.129-.327V6.687A4.993,4.993,0,0,1,48.456,1.7H60.986a4.993,4.993,0,0,1,4.987,4.987V8.022a.85.85,0,0,0,1.7,0V6.687A6.694,6.694,0,0,0,60.986,0H48.456A6.694,6.694,0,0,0,41.77,6.687v8.431a2.537,2.537,0,0,0-1.305,2.2v1.291a2.521,2.521,0,0,0,2.518,2.519h.534A13.432,13.432,0,0,0,46.268,27.1c.186.236.389.478.608.721a7.747,7.747,0,0,0-5.355,6.7L34.6,36.616a4.276,4.276,0,0,0-3,3.393l-1.042,6.1a.85.85,0,0,0,1.675.286l1.042-6.1a2.585,2.585,0,0,1,1.813-2.052l6.4-1.931v2.371a.85.85,0,0,0,1.7,0V35.8l2.919-.881c.275.578.828,1.852,1.941,4.64,1.032,2.589,2.293,5.844,3.5,9.011a.86.86,0,0,0,.031.081c.836,2.188,1.647,4.33,2.34,6.178a.849.849,0,0,0,1.591,0c.693-1.848,1.5-3.991,2.341-6.178.012-.027.022-.053.031-.081,1.23-3.218,2.512-6.526,3.553-9.135,1.08-2.7,1.621-3.948,1.892-4.517l2.919.881v5.784a.85.85,0,0,0,1.7,0V36.311l6.4,1.931a2.587,2.587,0,0,1,1.813,2.052l2.566,15.021a.843.843,0,0,1-.831.985H31.543a.842.842,0,0,1-.831-.985l.847-4.957a.85.85,0,0,0-1.675-.286l-.847,4.957A2.542,2.542,0,0,0,31.543,58H77.9A2.542,2.542,0,0,0,80.4,55.03ZM66.133,33.988,63.2,33.1h0a2.317,2.317,0,0,0-1.492.056,2.245,2.245,0,0,1-.579-1.456V29.227A5.986,5.986,0,0,1,66.133,33.988Zm-5.158,2.085-.116.28-.038.092-.1.247-.027.065-.031.077-.054.131-.068.167-.05.123-.139.341-.052.129c-.026.064-.052.129-.078.194l-.057.14-.077.19-.072.179-.069.173-.136.341-.053.134-.1.255-.062.157-.1.245-.063.159-.12.3-.042.105-.012.03-.833-.354-.013-.006-2-.849L61.2,35.545l-.068.159L61.007,36C61,36.022,60.986,36.047,60.975,36.073Zm-3.1,7.793-.506,1.309-.346-1.893,1.295-1.5.316.135Q58.274,42.841,57.877,43.866Zm-6.312,0q-.4-1.026-.76-1.954l.317-.135,1.294,1.5-.346,1.893C51.9,44.74,51.735,44.3,51.565,43.866ZM50.132,40.2l-.121-.305-.063-.158-.1-.242-.066-.166-.094-.236-.06-.15L49.5,38.6l-.076-.19-.061-.153-.082-.2-.054-.135-.079-.2-.05-.125-.136-.334-.055-.135-.064-.156-.06-.147-.028-.069-.023-.056c-.042-.1-.082-.2-.123-.3l-.01-.024-.135-.325-.018-.042-.13-.31-.068-.159,4.784,3.576-2,.849-.012,0-.834.354-.012-.03Zm-.114-9.863a9.974,9.974,0,0,0,9.406,0V31.7a4.028,4.028,0,0,0,.861,2.4l-5.564,4.159-5.564-4.159a4.028,4.028,0,0,0,.861-2.4Zm3.7,11.854-.952-1.106,1.958-.831,1.958.831-.952,1.107H53.715ZM67.278,18.611a.821.821,0,0,1-.819.819h-.475v-2.2a3.672,3.672,0,0,1,.82-.111.873.873,0,0,0,.415-.1.807.807,0,0,1,.06.3Zm-25.114,0V17.32a.809.809,0,0,1,.06-.3.868.868,0,0,0,.415.1,3.748,3.748,0,0,1,.819.111v2.2h-.475A.82.82,0,0,1,42.164,18.611Zm2.994,1.772V18.152A1.192,1.192,0,0,0,46.69,17.01V9.169a1.733,1.733,0,0,1,1.731-1.731h2.344a1.82,1.82,0,0,1,1.149.41l.23.188a4.071,4.071,0,0,0,5.154,0l.23-.188a1.822,1.822,0,0,1,1.149-.41h2.344a1.733,1.733,0,0,1,1.731,1.731V17.01a1.192,1.192,0,0,0,1.532,1.143v2.23a10.987,10.987,0,0,1-2.446,5.668A11.2,11.2,0,0,1,59.8,28.068a.84.84,0,0,0-.077.058,8.279,8.279,0,0,1-10.01,0,.84.84,0,0,0-.077-.058A11.223,11.223,0,0,1,47.6,26.052,10.986,10.986,0,0,1,45.158,20.384Zm3.161,8.845V31.7a2.243,2.243,0,0,1-.58,1.456,2.318,2.318,0,0,0-1.493-.055h0l-2.933.885A6.033,6.033,0,0,1,48.319,29.229Zm6.419,22.85a.817.817,0,0,0-.087-.142c-.384-1.015-.87-2.3-1.41-3.71l.793-4.341h1.374l.793,4.341C55.637,49.705,55.129,51.043,54.737,52.078Z" transform="translate(0)" fill="#434c54"/>
      <path id="Path_12509" data-name="Path 12509" d="M110.771,348.87h-1.059a.85.85,0,0,1,0-1.7h1.059a.46.46,0,0,0,.458-.5l-.619-7.941a2.611,2.611,0,0,0-.2-.815,2.544,2.544,0,0,0-2.371-1.52h-.16a2.568,2.568,0,0,0-2.4,1.636,2.607,2.607,0,0,0-.153.7l-.619,7.941a.46.46,0,0,0,.458.5h1.059a.85.85,0,1,1,0,1.7h-1.059a2.159,2.159,0,0,1-2.153-2.327l.619-7.94a4.216,4.216,0,0,1,4.238-3.9h.172a4.238,4.238,0,0,1,3.935,2.557,4.3,4.3,0,0,1,.328,1.346l.619,7.94a2.159,2.159,0,0,1-2.153,2.327Z" transform="translate(-65.621 -296.784)" fill="#aab2b9"/>
    </g>
  </g>
</svg>
