<svg xmlns="http://www.w3.org/2000/svg" xmlns:xlink="http://www.w3.org/1999/xlink" width="29.54" height="29.099" viewBox="0 0 29.54 29.099">
  <defs>
    <filter id="star" x="0" y="0" width="29.54" height="29.099" filterUnits="userSpaceOnUse">
      <feOffset dy="3" input="SourceAlpha"/>
      <feGaussianBlur stdDeviation="3" result="blur"/>
      <feFlood flood-opacity="0.161"/>
      <feComposite operator="in" in2="blur"/>
      <feComposite in="SourceGraphic"/>
    </filter>
  </defs>
  <g transform="matrix(1, 0, 0, 1, 0, 0)" filter="url(#star)">
    <g id="star-2" data-name="star" transform="translate(10 -4.8)" fill="#1479ff" stroke-linejoin="round">
      <path d="M 1.994508028030396 21.39474105834961 C 1.828827977180481 21.39474105834961 1.67041802406311 21.34328079223633 1.536388039588928 21.24593162536621 C 1.294497966766357 21.07013130187988 1.175718069076538 20.77800178527832 1.226288080215454 20.48347091674805 L 1.686843633651733 17.79765892028809 L -0.2644719779491425 15.89551067352295 C -0.4785019755363464 15.6869010925293 -0.5540819764137268 15.38072109222412 -0.4617019891738892 15.09647083282471 C -0.3693319857120514 14.81221103668213 -0.1282019764184952 14.60894107818604 0.1675880253314972 14.56602096557617 L 2.864201068878174 14.17415142059326 L 4.070318222045898 11.73046112060547 C 4.202578067779541 11.46248149871826 4.470407962799072 11.29600143432617 4.769268035888672 11.29600143432617 C 5.068198204040527 11.29600143432617 5.336028099060059 11.46252155303955 5.468247890472412 11.73058128356934 L 6.674265384674072 14.17415332794189 L 9.371027946472168 14.56604099273682 C 9.666707992553711 14.60893154144287 9.907848358154297 14.81222152709961 10.00021839141846 15.09654140472412 C 10.09261798858643 15.38063144683838 10.01705837249756 15.68685150146484 9.80296802520752 15.89551067352295 L 7.851443290710449 17.79766845703125 L 8.312168121337891 20.48351097106934 C 8.362688064575195 20.77809143066406 8.243858337402344 21.0702018737793 8.002067565917969 21.24588203430176 C 7.868034362792969 21.34325981140137 7.709614276885986 21.39473152160645 7.543936252593994 21.39473152160645 C 7.54391622543335 21.39473152160645 7.54390811920166 21.39473152160645 7.543888092041016 21.39473152160645 C 7.418057918548584 21.39472198486328 7.292677879333496 21.3637809753418 7.181278228759766 21.30523109436035 L 4.769238948822021 20.03708076477051 L 2.357167959213257 21.30520057678223 C 2.245867967605591 21.36376190185547 2.120418071746826 21.39474105834961 1.994508028030396 21.39474105834961 Z" stroke="none"/>
      <path d="M 4.769268035888672 11.79600143432617 C 4.662898063659668 11.79600143432617 4.565758228302002 11.85638046264648 4.518678188323975 11.95176124572754 L 3.19622802734375 14.63116073608398 L 0.2393884658813477 15.06084060668945 C 0.1341476440429688 15.07611083984375 0.04668807983398438 15.14985084533691 0.01381778717041016 15.25101089477539 C -0.01906204223632812 15.35218048095703 0.008368492126464844 15.46323204040527 0.08453845977783203 15.53747177124023 L 2.224078178405762 17.62310028076172 L 1.719078063964844 20.56808090209961 C 1.701077938079834 20.67292022705078 1.744187831878662 20.77885055541992 1.830237865447998 20.84139251708984 C 1.916280269622803 20.90390205383301 2.030403614044189 20.91213989257812 2.124497890472412 20.86264038085938 L 4.769248008728027 19.47219085693359 L 7.413877964019775 20.86263084411621 C 7.508048057556152 20.9121208190918 7.62211799621582 20.90389060974121 7.708168029785156 20.84137153625488 C 7.794218063354492 20.77885055541992 7.837347984313965 20.67288970947266 7.8193678855896 20.56804084777832 L 7.314198017120361 17.62310028076172 L 9.453977584838867 15.53745079040527 C 9.530128479003906 15.46323204040527 9.557578086853027 15.35218048095703 9.524678230285645 15.25102043151855 C 9.49180793762207 15.14985084533691 9.404388427734375 15.07611083984375 9.299127578735352 15.06084060668945 L 6.342227935791016 14.63116073608398 L 5.019827842712402 11.95176124572754 C 4.972777843475342 11.85638046264648 4.875617980957031 11.79600143432617 4.769268035888672 11.79600143432617 M 4.769268035888672 10.79600143432617 C 5.25993824005127 10.79600143432617 5.699587821960449 11.06935119628906 5.916647911071777 11.50937080383301 L 7.00628662109375 13.7171516418457 L 9.442928314208984 14.07123184204102 C 9.928268432617188 14.14164161682129 10.3241081237793 14.47532081604004 10.47573852539062 14.94202041625977 C 10.62741851806641 15.40838050842285 10.50337791442871 15.91105079650879 10.15194797515869 16.25357055664062 L 8.388689041137695 17.97223281860352 L 8.804967880249023 20.39897155761719 C 8.887898445129395 20.88253021240234 8.692848205566406 21.36202239990234 8.295957565307617 21.65038108825684 C 8.075958251953125 21.81023025512695 7.815897941589355 21.89473152160645 7.54390811920166 21.89473152160645 C 7.337357997894287 21.89473152160645 7.131527900695801 21.84393119812012 6.948657989501953 21.74783134460449 L 4.769242763519287 20.60197830200195 L 2.589848041534424 21.74777221679688 C 2.407147884368896 21.84387969970703 2.201208114624023 21.89474105834961 1.994507789611816 21.89474105834961 C 1.722517967224121 21.89474105834961 1.462468147277832 21.81025123596191 1.242458343505859 21.65040969848633 C 0.8454580307006836 21.36188125610352 0.6504878997802734 20.88235092163086 0.7334976196289062 20.39887237548828 L 1.149618148803711 17.97222518920898 L -0.6134920120239258 16.25354194641113 C -0.9648017883300781 15.91113090515137 -1.088862419128418 15.40853118896484 -0.9372119903564453 14.94193077087402 C -0.7856016159057617 14.47532081604004 -0.3897724151611328 14.14166069030762 0.09579849243164062 14.07120132446289 L 2.532183170318604 13.71714973449707 L 3.621958255767822 11.50917053222656 C 3.83909797668457 11.06926155090332 4.278717994689941 10.79600143432617 4.769268035888672 10.79600143432617 Z" stroke="none" fill="#fff"/>
    </g>
  </g>
</svg>
